<svg version="1.1" id="Layer_1" xmlns="http://www.w3.org/2000/svg" xmlns:xlink="http://www.w3.org/1999/xlink" x="0px" y="0px"
	 width="100%" viewBox="0 0 708 708" enable-background="new 0 0 708 708" xml:space="preserve">
<path fill="#FEFFFD" opacity="1.000000" stroke="none" 
	d="
M1.000000,261.000000 
	C1.000000,174.000000 1.000000,87.500000 1.000000,1.000000 
	C237.000000,1.000000 473.000000,1.000000 709.000000,1.000000 
	C709.000000,237.000000 709.000000,473.000000 709.000000,709.000000 
	C473.000000,709.000000 237.000000,709.000000 1.000000,709.000000 
	C1.000000,559.833313 1.000000,410.666656 1.000000,261.000000 
M214.946930,217.011353 
	C214.946930,217.011353 214.722870,216.739197 214.225876,216.907944 
	C214.075287,217.211533 213.924683,217.515137 213.985229,217.823242 
	C213.985229,217.823242 213.776733,217.787201 213.143936,218.073166 
	C212.193680,223.038940 211.243439,228.004700 210.021576,233.811066 
	C209.852478,235.731262 209.683380,237.651474 209.472717,240.043671 
	C200.663605,239.299377 192.447968,238.337128 184.206131,237.981049 
	C175.193268,237.591599 170.451614,240.858856 168.934357,249.603241 
	C167.265015,259.224182 166.608307,269.045959 165.985489,278.810547 
	C165.749603,282.508575 164.683319,284.840668 161.128815,285.893951 
	C149.966843,289.201569 138.814636,292.542450 127.639755,295.805786 
	C125.969505,296.293518 124.197914,296.434265 122.365471,296.754364 
	C123.443146,256.727539 180.707916,178.848267 235.529404,148.875000 
	C327.698242,98.482323 416.709198,108.998825 502.264526,169.165009 
	C522.896423,143.624466 543.846375,117.690193 564.869080,91.665871 
	C562.966492,90.510513 561.401794,89.576759 559.853027,88.617294 
	C541.902466,77.497032 524.420532,65.517639 505.909637,55.425514 
	C465.748199,33.529533 422.202118,22.351646 376.785004,19.375374 
	C345.878357,17.350000 315.086151,19.286600 284.492401,25.650288 
	C217.256287,39.635803 159.846527,71.360184 111.964531,120.105133 
	C81.040504,151.586502 56.507271,187.388458 40.193638,228.962646 
	C25.445137,266.548187 16.438440,305.069794 15.384679,345.265961 
	C14.937540,362.322296 16.344685,379.537964 18.291666,396.522705 
	C22.061249,429.407135 31.248512,460.831696 45.076565,491.026825 
	C69.197052,543.696594 104.391129,587.260315 150.994598,621.487488 
	C206.549362,662.288818 269.124847,683.829285 337.788391,687.689087 
	C366.309845,689.292358 394.614502,686.856567 422.614563,681.022705 
	C472.288849,670.672974 517.314575,650.029724 557.743103,619.511902 
	C604.529968,584.194397 640.225281,540.009460 664.031555,486.198669 
	C679.878235,450.379333 689.218628,413.012207 691.799988,374.094513 
	C693.588379,347.130554 691.276062,320.217834 685.983887,293.678406 
	C678.422852,255.761169 666.140503,219.490234 645.867859,186.376236 
	C636.852844,171.650803 626.527161,157.727783 616.476135,142.970428 
	C617.292969,141.910675 618.521484,140.150635 619.916199,138.534088 
	C629.005615,127.999565 638.130981,117.496178 647.887207,106.889442 
	C655.650574,97.014282 663.746765,87.378738 671.078247,77.192749 
	C677.669800,68.034866 677.377625,56.094070 670.884155,48.489624 
	C663.330139,39.643269 654.089783,33.075882 643.142090,28.838152 
	C632.845154,24.852318 623.932739,27.427189 616.816223,34.942402 
	C610.245911,41.880871 604.639954,49.757980 598.876160,57.422436 
	C596.534607,60.536152 594.898865,64.180595 592.302368,67.855911 
	C586.832336,72.673653 595.366089,73.995560 594.635803,77.239189 
	C579.968567,94.973694 565.344482,112.460846 550.935547,130.123596 
	C528.741028,157.330093 506.658142,184.627945 484.593414,211.939987 
	C455.517853,247.930237 426.441864,283.920563 397.506104,320.023102 
	C389.056854,330.565033 389.568878,330.540314 397.115021,341.604034 
	C402.529480,349.542358 410.863922,353.476746 417.676056,359.435944 
	C412.028168,362.864777 405.974396,365.780792 400.833099,369.849762 
	C394.117218,375.164948 388.123535,381.392639 381.251862,386.862671 
	C373.806427,380.614532 366.361023,374.366394 358.960480,367.162659 
	C358.969086,339.739594 358.916443,312.316193 359.064209,284.893890 
	C359.082581,281.484711 358.181854,279.233002 355.686951,277.867645 
	C359.227692,275.388123 362.768402,272.908600 366.233612,270.304535 
	C366.233612,270.304535 366.363617,270.370239 367.042755,270.266083 
	C370.130493,267.988037 373.218231,265.709991 376.231415,263.296570 
	C376.231415,263.296570 376.363007,263.377563 376.979858,263.304291 
	C377.751221,262.674072 378.522552,262.043823 379.175018,261.258301 
	C379.175018,261.258301 379.340485,261.362518 380.033478,261.263855 
	C381.056030,260.720062 382.118439,260.239441 383.095276,259.623169 
	C401.986450,247.704376 422.066681,238.495392 443.699127,232.730255 
	C446.331726,232.028656 448.749359,230.520401 451.215759,229.202911 
	C451.215759,229.202911 451.327423,229.356689 451.998016,229.268173 
	C453.472046,227.683731 454.946075,226.099289 456.467743,224.411316 
	C456.467743,224.411316 456.554840,224.337799 456.972565,224.173981 
	C457.226074,223.969727 457.346832,223.704910 457.319214,223.310104 
	C457.319214,223.310104 457.389160,223.297089 457.853882,223.119644 
	C458.134125,222.894775 458.271271,222.602722 458.306335,222.166290 
	C458.306335,222.166290 458.291840,222.255798 458.908356,222.037003 
	C460.057404,220.470367 461.206421,218.903732 462.425629,217.276978 
	C462.425629,217.276978 462.507599,217.234360 463.098053,216.939957 
	C465.438660,213.137161 462.095886,214.385620 460.818665,214.646439 
	C455.165619,215.800766 449.447937,216.840866 443.967651,218.592087 
	C435.379700,221.336380 426.964325,224.620712 418.221649,227.651489 
	C418.221649,227.651489 418.011322,227.796448 417.247345,227.782516 
	C415.301331,228.717804 413.355286,229.653091 411.172028,230.575378 
	C411.172028,230.575378 410.993225,230.731812 410.207336,230.763580 
	C401.717682,235.066177 393.227997,239.368774 385.012573,243.966919 
	C385.012573,243.966919 384.734711,243.678207 384.029785,243.745682 
	C381.946289,245.083908 379.862762,246.422150 377.914734,247.972504 
	C377.914734,247.972504 377.815094,247.741379 377.168884,247.795380 
	C376.370972,248.446655 375.573059,249.097916 374.892273,249.989624 
	C374.892273,249.989624 374.807678,249.735947 374.163086,249.792557 
	C373.365326,250.441330 372.567535,251.090103 371.882507,252.000534 
	C371.882507,252.000534 371.798309,251.728607 371.155151,251.787674 
	C370.359253,252.436951 369.563324,253.086227 368.865723,254.005920 
	C368.865723,254.005920 368.793518,253.728012 368.092590,253.813568 
	C364.959259,256.064606 361.825928,258.315613 358.755280,260.690247 
	C358.755280,260.690247 358.633667,260.623779 358.016083,260.702301 
	C357.249939,261.342438 356.483795,261.982574 355.956573,262.849792 
	C355.956573,262.849792 355.690887,262.654785 354.993195,262.724243 
	C353.452271,262.356812 351.911346,261.989380 350.283295,261.629974 
	C350.283295,261.629974 350.312073,261.547333 350.059326,260.965698 
	C348.784027,260.211578 347.508728,259.457428 346.202942,258.941925 
	C346.202942,258.941925 346.249969,258.699310 345.999634,258.119385 
	C345.083649,257.642181 344.167664,257.164948 343.133514,256.814240 
	C343.133514,256.814240 343.259888,256.676056 343.010803,256.097809 
	C342.098816,255.622284 341.186859,255.146759 339.980652,254.762207 
	C339.980652,254.762207 340.270447,254.649979 340.016846,254.072571 
	C339.096069,253.609207 338.175323,253.145828 337.067230,252.847214 
	C337.067230,252.847214 337.259003,252.671692 336.995605,252.095276 
	C336.061584,251.639862 335.127533,251.184448 334.125824,250.985855 
	C334.125824,250.985855 334.227936,250.740601 333.968536,250.153992 
	C333.027893,249.693054 332.087280,249.232101 331.090393,248.941437 
	C331.090393,248.941437 331.197327,248.797470 330.927917,248.193741 
	C329.363098,247.361801 327.798279,246.529861 326.186676,245.957031 
	C326.186676,245.957031 326.249451,245.695007 325.970245,245.099915 
	C324.986938,244.641068 324.003662,244.182220 322.840485,243.550781 
	C322.840485,243.550781 322.591339,243.559067 322.247498,243.093552 
	C321.887817,242.979752 321.528168,242.865936 321.193329,242.926514 
	C321.193329,242.926514 321.221436,242.752625 320.936646,242.153564 
	C313.621552,238.686447 306.306458,235.219345 298.800354,231.604568 
	C298.800354,231.604568 298.560364,231.631058 298.134399,231.059723 
	C293.961090,229.400925 289.824097,227.642838 285.608276,226.100159 
	C265.192383,218.629593 244.475388,212.531433 222.402756,213.447006 
	C220.166489,213.539749 217.985397,214.962555 215.817154,215.987656 
	C215.817154,215.987656 215.801941,215.767654 215.290878,215.882767 
	C215.106293,216.164963 214.921722,216.447159 214.946930,217.011353 
z"/>
<path fill="#25A3DF" opacity="1.000000" stroke="none" 
	d="
M418.151215,358.889069 
	C410.863922,353.476746 402.529480,349.542358 397.115021,341.604034 
	C389.568878,330.540314 389.056854,330.565033 397.506104,320.023102 
	C426.441864,283.920563 455.517853,247.930237 484.593414,211.939987 
	C506.658142,184.627945 528.741028,157.330093 550.935547,130.123596 
	C565.344482,112.460846 579.968567,94.973694 594.635803,77.239189 
	C595.366089,73.995560 586.832336,72.673653 592.930664,67.933159 
	C600.335266,72.106056 607.487488,75.697403 613.805603,80.407570 
	C625.214905,88.913185 636.125671,98.087532 647.244629,106.982605 
	C638.130981,117.496178 629.005615,127.999565 619.916199,138.534088 
	C618.521484,140.150635 617.292969,141.910675 616.476135,142.970428 
	C626.527161,157.727783 636.852844,171.650803 645.867859,186.376236 
	C666.140503,219.490234 678.422852,255.761169 685.983887,293.678406 
	C691.276062,320.217834 693.588379,347.130554 691.799988,374.094513 
	C689.218628,413.012207 679.878235,450.379333 664.031555,486.198669 
	C640.225281,540.009460 604.529968,584.194397 557.743103,619.511902 
	C517.314575,650.029724 472.288849,670.672974 422.614563,681.022705 
	C394.614502,686.856567 366.309845,689.292358 337.788391,687.689087 
	C269.124847,683.829285 206.549362,662.288818 150.994598,621.487488 
	C104.391129,587.260315 69.197052,543.696594 45.076565,491.026825 
	C31.248512,460.831696 22.061249,429.407135 18.291666,396.522705 
	C16.344685,379.537964 14.937540,362.322296 15.384679,345.265961 
	C16.438440,305.069794 25.445137,266.548187 40.193638,228.962646 
	C56.507271,187.388458 81.040504,151.586502 111.964531,120.105133 
	C159.846527,71.360184 217.256287,39.635803 284.492401,25.650288 
	C315.086151,19.286600 345.878357,17.350000 376.785004,19.375374 
	C422.202118,22.351646 465.748199,33.529533 505.909637,55.425514 
	C524.420532,65.517639 541.902466,77.497032 559.853027,88.617294 
	C561.401794,89.576759 562.966492,90.510513 564.869080,91.665871 
	C543.846375,117.690193 522.896423,143.624466 502.264526,169.165009 
	C416.709198,108.998825 327.698242,98.482323 235.529404,148.875000 
	C180.707916,178.848267 123.443146,256.727539 122.365471,296.754364 
	C124.197914,296.434265 125.969505,296.293518 127.639755,295.805786 
	C138.814636,292.542450 149.966843,289.201569 161.128815,285.893951 
	C164.683319,284.840668 165.749603,282.508575 165.985489,278.810547 
	C166.608307,269.045959 167.265015,259.224182 168.934357,249.603241 
	C170.451614,240.858856 175.193268,237.591599 184.206131,237.981049 
	C192.447968,238.337128 200.663605,239.299377 209.472717,240.043671 
	C209.683380,237.651474 209.852478,235.731262 210.412018,233.121429 
	C211.793884,227.550262 212.785309,222.668732 213.776733,217.787201 
	C213.776733,217.787201 213.985229,217.823242 214.149933,217.761505 
	C214.450714,217.379562 214.586792,217.059387 214.722870,216.739197 
	C214.722870,216.739197 214.946930,217.011353 215.118622,216.847504 
	C215.460846,216.378326 215.631393,216.072983 215.801941,215.767654 
	C215.801941,215.767654 215.817154,215.987656 216.203949,215.909515 
	C221.287735,215.531555 225.985626,214.964752 230.681610,214.980087 
	C247.275528,215.034225 262.940918,219.587555 278.412567,225.087784 
	C285.063324,227.452148 291.840576,229.460800 298.560364,231.631058 
	C298.560364,231.631058 298.800354,231.604568 299.070496,231.991425 
	C306.634216,235.836380 313.927826,239.294495 321.221436,242.752625 
	C321.221436,242.752625 321.193329,242.926514 321.302856,243.131256 
	C321.805359,243.410355 322.198364,243.484711 322.591339,243.559067 
	C322.591339,243.559067 322.840485,243.550781 323.052490,243.974121 
	C324.259491,244.829971 325.254486,245.262497 326.249451,245.695007 
	C326.249451,245.695007 326.186676,245.957031 326.269440,246.177643 
	C327.967255,247.197998 329.582275,247.997726 331.197327,248.797455 
	C331.197327,248.797470 331.090393,248.941437 331.206238,249.192383 
	C332.290710,249.875763 333.259338,250.308182 334.227936,250.740601 
	C334.227936,250.740601 334.125824,250.985855 334.232361,251.201172 
	C335.312256,251.834885 336.285614,252.253296 337.259003,252.671692 
	C337.259003,252.671692 337.067230,252.847214 337.211548,253.115631 
	C338.327362,253.806046 339.298920,254.228012 340.270447,254.649979 
	C340.270447,254.649979 339.980652,254.762207 340.169922,255.068527 
	C341.326080,255.808578 342.292969,256.242310 343.259888,256.676056 
	C343.259888,256.676056 343.133514,256.814240 343.242920,257.100098 
	C344.318237,257.823730 345.284088,258.261536 346.249969,258.699310 
	C346.249969,258.699310 346.202942,258.941925 346.272949,259.174683 
	C347.666016,260.120728 348.989044,260.834045 350.312073,261.547333 
	C350.312073,261.547333 350.283295,261.629974 350.332977,261.975647 
	C352.075592,263.650055 353.649170,266.878510 355.690887,262.654785 
	C355.690887,262.654785 355.956573,262.849792 356.184937,262.826874 
	C357.153381,262.077209 357.893524,261.350494 358.633667,260.623779 
	C358.633667,260.623779 358.755280,260.690247 359.084961,260.730347 
	C362.540924,258.423004 365.667206,256.075500 368.793518,253.728012 
	C368.793518,253.728012 368.865723,254.005920 369.162476,253.928680 
	C370.238922,253.143845 371.018616,252.436234 371.798309,251.728607 
	C371.798309,251.728607 371.882507,252.000534 372.171692,251.927155 
	C373.243134,251.147842 374.025421,250.441895 374.807678,249.735947 
	C374.807678,249.735947 374.892273,249.989624 375.179047,249.923828 
	C376.248901,249.152466 377.032013,248.446930 377.815094,247.741379 
	C377.815094,247.741379 377.914734,247.972504 378.214508,247.912674 
	C380.587769,246.461288 382.661224,245.069748 384.734711,243.678207 
	C384.734711,243.678207 385.012573,243.966919 385.250305,243.890121 
	C393.989777,239.452820 402.491516,235.092316 410.993225,230.731812 
	C410.993225,230.731812 411.172028,230.575378 411.677551,230.673126 
	C414.125854,229.779419 416.068573,228.787933 418.011322,227.796448 
	C418.011322,227.796448 418.221649,227.651489 418.761108,227.729706 
	C432.024139,224.090546 444.730225,220.310471 457.494720,216.739243 
	C459.001556,216.317642 460.828857,217.041489 462.507599,217.234360 
	C462.507599,217.234360 462.425629,217.276978 462.035797,217.321869 
	C460.527924,218.996445 459.409882,220.626114 458.291840,222.255798 
	C458.291840,222.255798 458.306335,222.166290 458.010406,222.244812 
	C457.606049,222.647934 457.497620,222.972519 457.389160,223.297089 
	C457.389160,223.297089 457.319214,223.310104 457.047821,223.343079 
	C456.702576,223.696640 456.628693,224.017212 456.554840,224.337799 
	C456.554840,224.337799 456.467743,224.411316 456.096802,224.407425 
	C454.259735,226.054581 452.793579,227.705643 451.327423,229.356689 
	C451.327423,229.356689 451.215759,229.202911 450.844788,229.179504 
	C448.432495,229.772430 446.415802,230.490967 444.346069,230.989319 
	C423.822998,235.930923 404.980927,244.882156 386.770416,255.271896 
	C384.028107,256.836487 381.804199,259.309662 379.340485,261.362518 
	C379.340485,261.362518 379.175018,261.258301 378.887604,261.231873 
	C377.854462,261.929504 377.108734,262.653534 376.363007,263.377563 
	C376.363007,263.377563 376.231415,263.296570 375.907928,263.258667 
	C372.510834,265.603943 369.437225,267.987091 366.363617,270.370239 
	C366.363617,270.370239 366.233612,270.304535 365.908020,270.263672 
	C359.420776,274.193573 353.315735,278.515472 345.700623,273.403931 
	C345.707306,273.378815 345.718750,273.328064 345.684265,272.977966 
	C344.688354,272.173523 343.726898,271.719177 342.814087,271.131104 
	C342.862701,270.997345 342.793396,271.273010 342.733276,270.930267 
	C341.711151,270.133606 340.749115,269.679688 339.843872,269.126587 
	C339.900604,269.027405 339.826508,269.243561 339.754456,268.899719 
	C338.363892,267.819427 337.045410,267.083008 335.878510,266.268616 
	C336.030090,266.190674 335.721558,266.328186 335.685547,265.978149 
	C334.688324,265.173553 333.727081,264.718994 332.813019,264.131165 
	C332.860168,263.997925 332.794037,264.272339 332.733948,263.929932 
	C331.714172,263.129608 330.754517,262.671722 329.850891,262.126099 
	C329.906891,262.038391 329.838196,262.234863 329.761780,261.897583 
	C328.722473,261.110443 327.759613,260.660583 326.852478,260.125854 
	C326.908203,260.040985 326.841034,260.232605 326.763367,259.895813 
	C325.723206,259.108795 324.760742,258.658630 323.854675,258.126099 
	C323.911133,258.043793 323.843140,258.231476 323.763031,257.891296 
	C322.703125,257.143768 321.723358,256.736420 320.770203,256.208313 
	C320.796844,256.087585 320.758087,256.323303 320.683350,256.005005 
	C320.015442,255.526657 319.422241,255.366608 318.925720,255.141510 
	C319.022400,255.076477 318.846588,255.229858 318.764038,254.889816 
	C317.700165,254.147812 316.718872,253.745850 315.741486,253.308838 
	C315.745422,253.273758 315.753357,253.326813 315.669952,252.988464 
	C295.085449,240.141449 272.990814,231.874390 249.289566,228.036301 
	C241.462952,226.768890 233.566864,225.875290 225.671341,225.150650 
	C224.540558,225.046860 222.359146,226.713303 222.164093,227.823944 
	C221.451508,231.881607 221.101532,236.050583 221.097946,240.178040 
	C221.042084,304.460114 221.032303,368.742279 221.161240,433.024139 
	C221.167053,435.922150 222.587158,438.817383 223.287903,441.685486 
	C223.227264,441.657104 223.358322,441.629578 223.367172,441.985229 
	C224.340637,442.779541 225.305252,443.218140 226.128265,443.704742 
	C225.986679,443.752747 226.274155,443.679504 226.317200,444.034576 
	C232.102325,446.785431 237.844406,449.181183 243.707947,451.540710 
	C243.829422,451.504425 244.040268,451.645172 244.197678,451.995422 
	C245.766953,452.749237 247.178818,453.152832 248.713593,453.526459 
	C248.836502,453.496490 249.042419,453.643524 249.185959,453.982178 
	C253.085876,455.730530 256.842255,457.140259 260.720551,458.521912 
	C260.842468,458.493805 261.045197,458.640503 261.183411,458.976685 
	C271.909882,464.705353 282.473541,470.147034 293.103912,475.455231 
	C295.708160,476.755585 298.530426,477.619354 301.243744,478.820038 
	C301.235016,478.956207 301.230103,478.686188 301.318024,479.021545 
	C303.691223,480.455933 305.976501,481.554962 308.185852,482.725800 
	C308.109924,482.797607 308.255310,482.666412 308.333496,483.004700 
	C310.697815,484.444977 312.983917,485.546906 315.199341,486.687012 
	C315.128601,486.725159 315.262970,486.665100 315.336853,487.003357 
	C317.021942,488.130524 318.633179,488.919495 320.179596,489.852936 
	C320.114777,489.997406 320.231171,489.707916 320.284119,490.053802 
	C321.301392,490.846924 322.265686,491.294189 323.223358,491.778229 
	C323.216736,491.815002 323.213379,491.755646 323.263092,492.028442 
	C323.636993,492.422089 323.961212,492.542969 324.302032,492.790314 
	C324.318665,492.916779 324.315918,492.660919 324.334778,493.014313 
	C325.649200,494.156708 326.944733,494.945709 328.229492,495.749756 
	C328.218719,495.764832 328.223297,495.753571 328.268738,496.026489 
	C328.634521,496.432281 328.954834,496.565125 329.172089,496.828918 
	C329.069000,496.959839 329.299866,496.719452 329.317627,496.996796 
	C329.652344,497.412048 329.969299,497.549927 330.173279,497.820679 
	C330.060242,497.953491 330.309692,497.709656 330.327026,497.987671 
	C330.667236,498.376404 330.990082,498.487091 331.296906,498.675476 
	C331.280853,498.753113 331.381683,498.630707 331.373138,498.981934 
	C333.644653,501.157196 335.924713,502.981262 338.107025,504.903076 
	C338.009277,505.000824 338.195801,504.797333 338.167542,505.153229 
	C340.517944,507.920898 342.896637,510.332672 345.227936,512.732056 
	C345.180542,512.719604 345.258911,512.777893 345.290924,513.043396 
	C345.623444,513.465332 345.923950,513.621765 346.244629,513.830444 
	C346.264832,513.882751 346.271729,513.770874 346.217346,514.124084 
	C347.232239,515.531860 348.301575,516.586365 349.235016,517.675293 
	C349.099152,517.709595 349.378479,517.686829 349.371765,517.965454 
	C349.682343,518.368774 349.999603,518.493530 350.231018,518.777222 
	C350.145142,518.936157 350.351349,518.639465 350.361938,518.992065 
	C353.321228,522.435730 354.608246,520.447510 355.662964,517.677490 
	C355.702972,517.728088 355.699158,517.599182 355.976105,517.621399 
	C356.415771,517.339111 356.578491,517.034668 356.839813,516.719238 
	C356.938446,516.708313 356.739655,516.697998 357.092773,516.758545 
	C358.458710,515.739197 359.471558,514.659302 360.535217,513.561157 
	C360.586029,513.542786 360.651123,513.456604 360.923645,513.519226 
	C361.312378,513.270264 361.428558,512.958618 361.587463,512.635193 
	C361.630219,512.623352 361.678497,512.548889 361.954956,512.583740 
	C362.378143,512.310181 362.524902,512.001709 362.734039,511.797363 
	C362.796417,511.901459 362.719513,511.671234 362.996704,511.668884 
	C363.436890,511.359741 363.599823,511.052979 363.893341,510.831299 
	C364.023926,510.916351 363.755798,510.761658 364.029541,510.728027 
	C364.465912,510.385406 364.628540,510.076447 364.888733,509.862274 
	C364.986328,509.957062 364.771027,509.790802 365.042938,509.747009 
	C365.474976,509.392700 365.635132,509.082153 365.769012,508.820679 
	C365.742737,508.869781 365.768799,508.759277 366.123779,508.798950 
	C368.167877,507.093353 369.856995,505.348053 371.588745,503.601379 
	C371.631409,503.600006 371.667877,503.522766 371.943848,503.564270 
	C372.357330,503.295441 372.494812,502.985046 372.674316,502.707703 
	C372.716370,502.740753 372.707245,502.634216 372.985077,502.644409 
	C373.421661,502.347015 373.580414,502.039459 373.845886,501.833069 
	C373.952637,501.934235 373.743805,501.738312 374.019165,501.712708 
	C374.456573,501.377960 374.618652,501.068817 374.770935,500.775452 
	C374.761108,500.791229 374.761078,500.742310 375.113312,500.788330 
	C376.893036,499.456970 378.320557,498.079620 379.792908,496.765747 
	C379.837738,496.829224 379.737854,496.691406 380.087402,496.755493 
	C381.545441,495.782257 382.653870,494.744934 383.804291,493.820801 
	C383.846252,493.933990 383.750214,493.702759 384.099121,493.767700 
	C385.185791,493.100677 385.923553,492.368744 386.764648,491.707275 
	C386.868011,491.777710 386.700470,491.591980 387.056213,491.686981 
	C389.157043,490.397247 390.902100,489.012512 392.715668,487.665497 
	C392.784210,487.703186 392.700226,487.571167 393.044098,487.676636 
	C394.161652,487.074951 394.935333,486.367767 395.857605,485.775421 
	C396.006226,485.890259 395.727539,485.638184 396.071320,485.724670 
	C397.209595,485.116364 398.004089,484.421539 398.859375,483.860901 
	C398.920227,483.995087 398.771637,483.740448 399.130341,483.795471 
	C400.921722,482.805573 402.354401,481.760590 403.856873,480.859802 
	C403.926636,481.003967 403.764893,480.727020 404.136230,480.784424 
	C407.917328,478.780670 411.327118,476.719482 414.829346,474.714844 
	C414.921783,474.771362 414.732513,474.644196 415.104980,474.727295 
	C425.254028,470.061310 435.049042,465.349548 444.797974,460.544220 
	C448.570160,458.684845 452.237915,456.613556 456.049500,454.564362 
	C456.145721,454.489899 456.386322,454.526245 456.770935,454.639191 
	C459.085785,453.708557 461.016052,452.665009 463.043396,451.564575 
	C463.140472,451.507660 463.356018,451.572296 463.746582,451.612793 
	C466.072021,450.639771 468.006866,449.626312 470.040039,448.556458 
	C470.138397,448.500061 470.355011,448.566956 470.745392,448.608521 
	C473.073883,447.641693 475.011993,446.633331 477.046936,445.553467 
	C477.143799,445.481995 477.381470,445.520508 477.770569,445.634186 
	C480.008759,444.410156 481.857849,443.072449 483.814819,441.726776 
	C483.922699,441.718811 483.712128,441.764618 484.085358,441.693665 
	C485.311188,439.204346 486.800812,436.811523 486.899170,434.362885 
	C487.216736,426.453430 486.937653,418.522308 487.042480,410.601593 
	C487.295532,391.479248 487.741608,372.358948 487.909943,353.236053 
	C488.065399,335.578613 487.966705,317.918884 487.953644,300.260162 
	C487.952972,299.339447 487.705536,298.418915 487.373413,296.112396 
	C485.806152,298.150482 484.998840,299.200317 484.117188,300.206787 
	C484.042816,300.163452 484.212128,300.194672 483.951050,300.251129 
	C483.568878,300.619476 483.447754,300.931366 483.299957,301.257324 
	C483.273285,301.271393 483.270782,301.331635 483.005249,301.343658 
	C482.639221,301.662750 482.538727,301.969788 482.402771,302.294800 
	C482.367340,302.312775 482.349121,302.390106 482.027527,302.417236 
	C481.498688,303.020233 481.291443,303.596130 480.914734,304.453613 
	C464.601471,321.293427 448.393982,337.790405 432.357971,354.452362 
	C428.294769,358.674164 423.888428,360.609589 418.151215,358.889069 
M368.832733,523.691162 
	C368.832733,523.691162 368.743195,523.605896 369.480591,523.787903 
	C376.603546,520.113464 383.726501,516.439026 390.868256,512.784363 
	C390.868256,512.784363 390.863953,512.787170 391.642517,512.911743 
	C408.108704,507.200043 424.576660,501.493408 441.030426,495.746246 
	C441.421936,495.609528 441.654999,495.019012 442.231628,494.492249 
	C442.231628,494.492249 442.509552,494.624054 443.350464,494.828461 
	C453.943085,491.817200 464.560425,488.889069 475.114899,485.749603 
	C478.811951,484.649872 482.354431,483.030487 486.252045,481.517792 
	C486.252045,481.517792 486.532318,481.657410 487.365967,481.850067 
	C489.569763,481.116547 491.773590,480.383026 494.272278,479.529755 
	C494.272278,479.529755 494.550323,479.684662 495.440002,479.870667 
	C500.615082,478.444733 505.790131,477.018799 511.215729,475.474487 
	C511.215729,475.474487 511.451538,475.620026 512.349487,475.852051 
	C516.407227,475.109131 520.499207,474.512756 524.512146,473.577637 
	C527.814087,472.808228 529.080627,470.732727 529.095093,467.051971 
	C529.264465,423.803802 529.811829,380.556702 529.882202,337.308685 
	C529.923584,311.874756 529.341980,286.438812 528.898804,261.006256 
	C528.840942,257.688446 527.935486,254.385391 527.422607,251.075516 
	C526.958191,250.988647 526.493713,250.901779 526.029297,250.814911 
	C525.379028,251.921951 524.728760,253.028992 523.746643,254.709290 
	C516.719482,263.153259 509.813293,271.702179 502.615021,279.997650 
	C498.918976,284.257050 497.122772,288.893494 497.127563,294.523407 
	C497.167175,341.003845 497.109467,387.484406 497.098511,433.964905 
	C497.098206,435.286133 497.289764,436.607422 497.244904,438.752289 
	C497.154480,439.583527 497.064056,440.414764 496.578583,441.489502 
	C496.584198,441.919647 496.589813,442.349762 496.352112,443.527740 
	C496.296173,444.048553 496.240234,444.569366 495.603821,445.430267 
	C492.720856,447.639709 490.106140,450.395569 486.909058,451.965149 
	C472.114868,459.228241 457.130219,466.101929 442.266998,473.226135 
	C413.634949,486.950012 386.600983,503.139160 362.493835,525.014893 
	C361.348846,525.922485 360.203857,526.830017 359.058868,527.737610 
	C359.454254,528.319946 359.849640,528.902283 360.245056,529.484619 
	C363.066742,527.547974 365.888458,525.611389 368.832733,523.691162 
M520.065430,484.994232 
	C520.065430,484.994232 520.011230,485.130554 519.171387,485.073120 
	C513.492493,486.262756 507.776764,487.300354 502.140594,488.666321 
	C461.404602,498.538971 421.605804,511.443268 382.298462,525.916077 
	C378.597931,527.278625 374.994995,528.906372 371.346771,530.411072 
	C371.406036,530.824158 371.465332,531.237244 371.524597,531.650330 
	C373.321014,531.328003 375.118042,531.009094 376.913696,530.682678 
	C392.725555,527.808594 408.489410,524.629517 424.360901,522.134949 
	C444.177094,519.020264 464.081787,516.468689 484.768494,513.720764 
	C485.420471,513.586182 486.066437,513.388977 486.725250,513.326050 
	C508.243835,511.270264 529.760071,509.187469 551.287415,507.227997 
	C554.317627,506.952148 556.453308,506.263428 556.510986,502.712463 
	C556.545898,500.562073 556.983826,498.416473 556.991882,496.267761 
	C557.040039,483.452881 557.015747,470.637726 557.015747,456.404694 
	C558.239807,460.967560 559.093933,464.151642 560.037720,467.669861 
	C568.447998,460.717377 570.042725,451.685028 565.255066,441.514343 
	C560.092957,430.548126 551.707581,425.156708 542.041321,426.947784 
	C541.818237,429.099365 541.403992,431.385162 541.374878,433.675903 
	C541.256165,443.003479 541.151001,452.333466 541.233887,461.660858 
	C541.388245,479.038269 540.518494,480.250610 523.189331,484.228485 
	C522.194580,484.498749 521.199829,484.769043 520.065430,484.994232 
M176.869156,510.114960 
	C180.669235,510.515717 184.475021,510.869110 188.268494,511.324890 
	C212.337921,514.216919 236.463730,516.719055 260.455353,520.156494 
	C283.768066,523.496826 306.940918,527.811951 330.182190,531.656738 
	C331.098083,531.808289 332.086212,531.523132 333.040710,531.441406 
	C333.146301,530.956787 333.251892,530.472229 333.357483,529.987671 
	C331.348480,529.144104 329.364319,528.234680 327.326782,527.466736 
	C286.732239,512.166992 245.936005,497.462219 203.577667,487.686615 
	C192.803650,485.200195 181.830231,483.577698 170.370041,481.098450 
	C166.250183,477.413574 164.655304,472.826569 164.732620,467.301147 
	C164.890945,455.986053 164.750412,444.665894 164.640839,433.348694 
	C164.618927,431.086639 164.186249,428.828583 163.851135,425.715546 
	C159.519516,427.230591 155.702271,428.263977 152.145035,429.872406 
	C144.620087,433.274811 139.999863,438.879181 139.531769,447.498871 
	C139.176910,454.033722 140.410995,460.212952 144.173157,465.496429 
	C148.055603,470.948792 149.295471,476.720734 148.983292,483.293976 
	C148.598541,491.395355 148.891357,499.528900 148.891357,508.401367 
	C158.276627,508.928680 167.168289,509.428284 176.869156,510.114960 
M218.748489,453.200745 
	C212.867981,450.956177 209.820923,447.247406 210.442673,440.402557 
	C211.057236,433.636902 210.572464,426.771790 210.576935,419.950287 
	C210.611801,366.621216 210.611649,313.292023 210.747665,259.963196 
	C210.759750,255.226944 208.496323,253.278076 204.275375,252.862671 
	C198.975540,252.341095 193.655487,252.022369 188.357620,251.483688 
	C181.382568,250.774475 180.673996,250.771210 180.033325,257.712708 
	C179.056519,268.295837 178.594193,278.958984 178.554016,289.590607 
	C178.333603,347.918732 178.384201,406.248016 178.080444,464.575531 
	C178.054550,469.547974 179.841263,471.003510 184.230667,472.090912 
	C206.339233,477.567841 228.427780,483.149841 250.393936,489.167419 
	C261.748047,492.277832 272.833344,496.369598 284.556061,500.491486 
	C303.325256,508.223083 322.094452,515.954651 342.134308,524.209656 
	C307.785034,487.718475 263.135895,471.333527 218.748489,453.200745 
M250.579712,530.147217 
	C231.787460,528.035522 212.995224,525.923889 194.202972,523.812195 
	C194.044373,524.573608 193.885757,525.334961 193.727142,526.096375 
	C241.017288,569.016235 296.554626,590.564453 360.801483,588.961182 
	C420.510651,587.471130 470.919281,563.680725 514.568115,523.863037 
	C512.871765,523.448120 511.282013,523.454224 509.712067,523.633667 
	C496.668823,525.124451 483.604675,526.462830 470.593414,528.196899 
	C438.642731,532.455139 406.683777,536.678528 374.808563,541.453125 
	C368.283234,542.430542 361.884735,545.293762 355.881073,548.218323 
	C353.379852,549.436707 352.113190,549.617737 349.825287,548.349487 
	C345.788422,546.111816 341.660309,543.241699 337.272552,542.563599 
	C308.717407,538.150513 280.082031,534.256287 250.579712,530.147217 
M538.875000,242.910141 
	C539.652466,254.998795 540.543152,267.081818 541.144653,279.179230 
	C541.349243,283.292358 542.426392,286.028320 546.847595,287.222900 
	C555.985168,289.691711 564.999634,292.613190 574.095886,295.240356 
	C576.862549,296.039398 579.731445,296.484467 582.550049,297.090942 
	C584.442810,286.290131 558.560974,232.182175 548.368774,224.731277 
	C545.794067,227.958221 542.886169,230.993835 540.752869,234.500656 
	C539.435730,236.665894 539.298279,239.548874 538.875000,242.910141 
z"/>
<path fill="#E1E5D7" opacity="1.000000" stroke="none" 
	d="
M417.913635,359.162506 
	C423.888428,360.609589 428.294769,358.674164 432.357971,354.452362 
	C448.393982,337.790405 464.601471,321.293427 481.166504,304.309265 
	C481.841522,303.385620 482.095337,302.887878 482.349121,302.390106 
	C482.349121,302.390106 482.367340,302.312775 482.616852,302.220154 
	C483.129517,301.927490 483.264313,301.662201 483.270782,301.331635 
	C483.270782,301.331635 483.273285,301.271393 483.529083,301.166870 
	C484.058289,300.837616 484.200684,300.548401 484.212128,300.194672 
	C484.212128,300.194672 484.042816,300.163452 484.532410,300.190735 
	C485.454132,301.147156 486.263550,302.077240 486.261200,303.005310 
	C486.230591,315.028717 486.084564,327.051849 485.588043,339.009277 
	C476.219940,335.716980 474.708588,335.936157 469.141968,343.345184 
	C461.670380,353.289612 454.527008,363.480499 447.233673,373.558990 
	C440.539795,382.809204 433.726013,391.975159 427.173218,401.324158 
	C423.179840,407.021637 418.066071,411.103790 411.352905,412.657288 
	C406.877045,413.693115 402.029694,413.222290 397.618591,414.420044 
	C386.291260,417.495941 375.168121,421.319855 363.854706,424.452423 
	C358.233093,426.009033 356.836792,429.383057 356.881927,434.772675 
	C357.078705,458.261322 356.969421,481.752533 356.965576,505.242828 
	C356.964508,511.825378 355.614960,513.650940 348.760468,515.901489 
	C347.751740,515.090149 347.011749,514.430481 346.271729,513.770874 
	C346.271729,513.770874 346.264832,513.882751 346.179382,513.585449 
	C345.815582,513.118042 345.537231,512.947998 345.258911,512.777893 
	C345.258911,512.777893 345.180542,512.719604 345.197693,512.456543 
	C345.108795,511.839661 345.002747,511.485748 345.216064,510.893524 
	C346.017487,508.605927 346.909027,506.558624 346.918671,504.507141 
	C347.023224,482.273376 346.994507,460.038971 346.981293,437.804718 
	C346.980438,436.357025 346.808228,434.909454 346.643677,432.333618 
	C342.856781,433.785187 339.798615,435.447510 336.545074,436.043579 
	C334.107666,436.490143 331.418671,435.563721 328.841705,435.248596 
	C329.591217,432.972443 330.197144,430.631989 331.171112,428.456299 
	C331.494995,427.732788 332.763367,427.432098 333.896301,427.170288 
	C337.466370,430.418091 340.652557,428.456177 343.295258,426.695923 
	C355.472839,418.584717 367.691528,410.504700 379.470337,401.835815 
	C387.749817,395.742340 387.444641,395.327667 381.819092,387.227692 
	C388.123535,381.392639 394.117218,375.164948 400.833099,369.849762 
	C405.974396,365.780792 412.028168,362.864777 417.913635,359.162506 
z"/>
<path fill="#E2E5D6" opacity="1.000000" stroke="none" 
	d="
M647.565918,106.936020 
	C636.125671,98.087532 625.214905,88.913185 613.805603,80.407570 
	C607.487488,75.697403 600.335266,72.106056 593.250488,67.796982 
	C594.898865,64.180595 596.534607,60.536152 598.876160,57.422436 
	C604.639954,49.757980 610.245911,41.880871 616.816223,34.942402 
	C623.932739,27.427189 632.845154,24.852318 643.142090,28.838152 
	C654.089783,33.075882 663.330139,39.643269 670.884155,48.489624 
	C677.377625,56.094070 677.669800,68.034866 671.078247,77.192749 
	C663.746765,87.378738 655.650574,97.014282 647.565918,106.936020 
z"/>
<path fill="#26A7E0" opacity="1.000000" stroke="none" 
	d="
M381.535461,387.045166 
	C387.444641,395.327667 387.749817,395.742340 379.470337,401.835815 
	C367.691528,410.504700 355.472839,418.584717 343.295258,426.695923 
	C340.652557,428.456177 337.466370,430.418091 333.912628,426.738739 
	C334.560577,422.224304 335.110382,418.231506 336.493561,414.552002 
	C339.581024,406.338470 343.084351,398.281250 346.684814,389.957733 
	C350.939484,382.542816 354.927551,375.330505 358.915619,368.118225 
	C366.361023,374.366394 373.806427,380.614532 381.535461,387.045166 
z"/>
<path fill="#E3E6D8" opacity="1.000000" stroke="none" 
	d="
M358.938049,367.640442 
	C354.927551,375.330505 350.939484,382.542816 346.320953,389.706726 
	C345.795959,384.414368 345.943512,379.170868 346.000092,373.926392 
	C346.355438,340.975739 346.690552,308.024872 347.357117,275.192505 
	C350.119171,276.214355 352.556458,277.117798 354.993774,278.021240 
	C358.181854,279.233002 359.082581,281.484711 359.064209,284.893890 
	C358.916443,312.316193 358.969086,339.739594 358.938049,367.640442 
z"/>
<path fill="#48D3EE" opacity="1.000000" stroke="none" 
	d="
M379.686981,261.313171 
	C381.804199,259.309662 384.028107,256.836487 386.770416,255.271896 
	C404.980927,244.882156 423.822998,235.930923 444.346069,230.989319 
	C446.415802,230.490967 448.432495,229.772430 450.870239,229.271042 
	C448.749359,230.520401 446.331726,232.028656 443.699127,232.730255 
	C422.066681,238.495392 401.986450,247.704376 383.095276,259.623169 
	C382.118439,260.239441 381.056030,260.720062 379.686981,261.313171 
z"/>
<path fill="#48D3EE" opacity="1.000000" stroke="none" 
	d="
M298.347382,231.345398 
	C291.840576,229.460800 285.063324,227.452148 278.412567,225.087784 
	C262.940918,219.587555 247.275528,215.034225 230.681610,214.980087 
	C225.985626,214.964752 221.287735,215.531555 216.184723,215.799744 
	C217.985397,214.962555 220.166489,213.539749 222.402756,213.447006 
	C244.475388,212.531433 265.192383,218.629593 285.608276,226.100159 
	C289.824097,227.642838 293.961090,229.400925 298.347382,231.345398 
z"/>
<path fill="#48D3EE" opacity="1.000000" stroke="none" 
	d="
M462.802826,217.087158 
	C460.828857,217.041489 459.001556,216.317642 457.494720,216.739243 
	C444.730225,220.310471 432.024139,224.090546 418.888184,227.742126 
	C426.964325,224.620712 435.379700,221.336380 443.967651,218.592087 
	C449.447937,216.840866 455.165619,215.800766 460.818665,214.646439 
	C462.095886,214.385620 465.438660,213.137161 462.802826,217.087158 
z"/>
<path fill="#48D3EE" opacity="1.000000" stroke="none" 
	d="
M410.600281,230.747696 
	C402.491516,235.092316 393.989777,239.452820 385.113220,243.742340 
	C393.227997,239.368774 401.717682,235.066177 410.600281,230.747696 
z"/>
<path fill="#48D3EE" opacity="1.000000" stroke="none" 
	d="
M355.340363,277.944458 
	C352.556458,277.117798 350.119171,276.214355 347.172546,274.995209 
	C346.340118,274.262695 346.017029,273.845886 345.693939,273.429077 
	C353.315735,278.515472 359.420776,274.193573 365.945801,270.325928 
	C362.768402,272.908600 359.227692,275.388123 355.340363,277.944458 
z"/>
<path fill="#48D3EE" opacity="1.000000" stroke="none" 
	d="
M321.079041,242.453094 
	C313.927826,239.294495 306.634216,235.836380 299.165985,232.065247 
	C306.306458,235.219345 313.621552,238.686447 321.079041,242.453094 
z"/>
<path fill="#48D3EE" opacity="1.000000" stroke="none" 
	d="
M213.460327,217.930176 
	C212.785309,222.668732 211.793884,227.550262 210.547821,232.701141 
	C211.243439,228.004700 212.193680,223.038940 213.460327,217.930176 
z"/>
<path fill="#48D3EE" opacity="1.000000" stroke="none" 
	d="
M368.443054,253.770782 
	C365.667206,256.075500 362.540924,258.423004 359.053589,260.668579 
	C361.825928,258.315613 364.959259,256.064606 368.443054,253.770782 
z"/>
<path fill="#48D3EE" opacity="1.000000" stroke="none" 
	d="
M366.703186,270.318176 
	C369.437225,267.987091 372.510834,265.603943 375.945190,263.326355 
	C373.218231,265.709991 370.130493,267.988037 366.703186,270.318176 
z"/>
<path fill="#48D3EE" opacity="1.000000" stroke="none" 
	d="
M384.382263,243.711945 
	C382.661224,245.069748 380.587769,246.461288 378.146790,247.806610 
	C379.862762,246.422150 381.946289,245.083908 384.382263,243.711945 
z"/>
<path fill="#48D3EE" opacity="1.000000" stroke="none" 
	d="
M451.662720,229.312439 
	C452.793579,227.705643 454.259735,226.054581 456.072998,224.459198 
	C454.946075,226.099289 453.472046,227.683731 451.662720,229.312439 
z"/>
<path fill="#48D3EE" opacity="1.000000" stroke="none" 
	d="
M458.600098,222.146393 
	C459.409882,220.626114 460.527924,218.996445 462.000732,217.351929 
	C461.206421,218.903732 460.057404,220.470367 458.600098,222.146393 
z"/>
<path fill="#48D3EE" opacity="1.000000" stroke="none" 
	d="
M417.629333,227.789490 
	C416.068573,228.787933 414.125854,229.779419 411.796204,230.679626 
	C413.355286,229.653091 415.301331,228.717804 417.629333,227.789490 
z"/>
<path fill="#48D3EE" opacity="1.000000" stroke="none" 
	d="
M355.342041,262.689514 
	C353.649170,266.878510 352.075592,263.650055 350.376526,261.971649 
	C351.911346,261.989380 353.452271,262.356812 355.342041,262.689514 
z"/>
<path fill="#48D3EE" opacity="1.000000" stroke="none" 
	d="
M331.062622,248.495605 
	C329.582275,247.997726 327.967255,247.197998 326.292847,246.048096 
	C327.798279,246.529861 329.363098,247.361801 331.062622,248.495605 
z"/>
<path fill="#48D3EE" opacity="1.000000" stroke="none" 
	d="
M350.185699,261.256531 
	C348.989044,260.834045 347.666016,260.120728 346.288208,259.055359 
	C347.508728,259.457428 348.784027,260.211578 350.185699,261.256531 
z"/>
<path fill="#48D3EE" opacity="1.000000" stroke="none" 
	d="
M340.143646,254.361267 
	C339.298920,254.228012 338.327362,253.806046 337.305176,253.033264 
	C338.175323,253.145828 339.096069,253.609207 340.143646,254.361267 
z"/>
<path fill="#48D3EE" opacity="1.000000" stroke="none" 
	d="
M371.476746,251.758148 
	C371.018616,252.436234 370.238922,253.143845 369.113342,253.793472 
	C369.563324,253.086227 370.359253,252.436951 371.476746,251.758148 
z"/>
<path fill="#48D3EE" opacity="1.000000" stroke="none" 
	d="
M337.127319,252.383484 
	C336.285614,252.253296 335.312256,251.834885 334.266174,251.072754 
	C335.127533,251.184448 336.061584,251.639862 337.127319,252.383484 
z"/>
<path fill="#48D3EE" opacity="1.000000" stroke="none" 
	d="
M343.135345,256.386932 
	C342.292969,256.242310 341.326080,255.808578 340.317017,255.023041 
	C341.186859,255.146759 342.098816,255.622284 343.135345,256.386932 
z"/>
<path fill="#48D3EE" opacity="1.000000" stroke="none" 
	d="
M346.124817,258.409363 
	C345.284088,258.261536 344.318237,257.823730 343.302002,257.036865 
	C344.167664,257.164948 345.083649,257.642181 346.124817,258.409363 
z"/>
<path fill="#48D3EE" opacity="1.000000" stroke="none" 
	d="
M374.485382,249.764252 
	C374.025421,250.441895 373.243134,251.147842 372.115295,251.796326 
	C372.567535,251.090103 373.365326,250.441330 374.485382,249.764252 
z"/>
<path fill="#48D3EE" opacity="1.000000" stroke="none" 
	d="
M358.324890,260.663025 
	C357.893524,261.350494 357.153381,262.077209 356.065491,262.713348 
	C356.483795,261.982574 357.249939,261.342438 358.324890,260.663025 
z"/>
<path fill="#48D3EE" opacity="1.000000" stroke="none" 
	d="
M376.671448,263.340942 
	C377.108734,262.653534 377.854462,261.929504 378.947021,261.309509 
	C378.522552,262.043823 377.751221,262.674072 376.671448,263.340942 
z"/>
<path fill="#48D3EE" opacity="1.000000" stroke="none" 
	d="
M334.098236,250.447296 
	C333.259338,250.308182 332.290710,249.875763 331.234375,249.107239 
	C332.087280,249.232101 333.027893,249.693054 334.098236,250.447296 
z"/>
<path fill="#48D3EE" opacity="1.000000" stroke="none" 
	d="
M377.492004,247.768372 
	C377.032013,248.446930 376.248901,249.152466 375.120483,249.803589 
	C375.573059,249.097916 376.370972,248.446655 377.492004,247.768372 
z"/>
<path fill="#48D3EE" opacity="1.000000" stroke="none" 
	d="
M326.109863,245.397461 
	C325.254486,245.262497 324.259491,244.829971 323.142456,244.060410 
	C324.003662,244.182220 324.986938,244.641068 326.109863,245.397461 
z"/>
<path fill="#48D3EE" opacity="1.000000" stroke="none" 
	d="
M322.419434,243.326309 
	C322.198364,243.484711 321.805359,243.410355 321.290436,243.044067 
	C321.528168,242.865936 321.887817,242.979752 322.419434,243.326309 
z"/>
<path fill="#48D3EE" opacity="1.000000" stroke="none" 
	d="
M457.621521,223.208374 
	C457.497620,222.972519 457.606049,222.647934 457.989929,222.283401 
	C458.271271,222.602722 458.134125,222.894775 457.621521,223.208374 
z"/>
<path fill="#48D3EE" opacity="1.000000" stroke="none" 
	d="
M456.763702,224.255890 
	C456.628693,224.017212 456.702576,223.696640 457.055664,223.377777 
	C457.346832,223.704910 457.226074,223.969727 456.763702,224.255890 
z"/>
<path fill="#48D3EE" opacity="1.000000" stroke="none" 
	d="
M214.474365,216.823578 
	C214.586792,217.059387 214.450714,217.379562 214.044373,217.759247 
	C213.924683,217.515137 214.075287,217.211533 214.474365,216.823578 
z"/>
<path fill="#48D3EE" opacity="1.000000" stroke="none" 
	d="
M215.546417,215.825211 
	C215.631393,216.072983 215.460846,216.378326 215.013733,216.706497 
	C214.921722,216.447159 215.106293,216.164963 215.546417,215.825211 
z"/>
<path fill="#FEFFFD" opacity="1.000000" stroke="none" 
	d="
M345.700623,273.403931 
	C346.017029,273.845886 346.340118,274.262695 346.847778,274.876801 
	C346.690552,308.024872 346.355438,340.975739 346.000092,373.926392 
	C345.943512,379.170868 345.795959,384.414368 346.054382,389.909363 
	C343.084351,398.281250 339.581024,406.338470 336.493561,414.552002 
	C335.110382,418.231506 334.560577,422.224304 333.616272,426.506531 
	C332.763367,427.432098 331.494995,427.732788 331.171112,428.456299 
	C330.197144,430.631989 329.591217,432.972443 328.841705,435.248596 
	C331.418671,435.563721 334.107666,436.490143 336.545074,436.043579 
	C339.798615,435.447510 342.856781,433.785187 346.643677,432.333618 
	C346.808228,434.909454 346.980438,436.357025 346.981293,437.804718 
	C346.994507,460.038971 347.023224,482.273376 346.918671,504.507141 
	C346.909027,506.558624 346.017487,508.605927 344.946716,510.695129 
	C342.303955,508.755829 340.249878,506.776581 338.195801,504.797333 
	C338.195801,504.797333 338.009277,505.000824 338.014343,504.582336 
	C335.806854,502.319458 333.594269,500.475067 331.381683,498.630707 
	C331.381683,498.630707 331.280853,498.753113 331.214478,498.448608 
	C330.939209,497.863098 330.659729,497.718292 330.309692,497.709656 
	C330.309692,497.709656 330.060242,497.953491 330.101166,497.580627 
	C329.861359,497.045013 329.580597,496.882233 329.299866,496.719452 
	C329.299866,496.719452 329.069000,496.959839 329.088531,496.586731 
	C328.813141,496.060242 328.518219,495.906891 328.223297,495.753571 
	C328.223297,495.753571 328.218719,495.764832 328.118103,495.445190 
	C326.783661,494.304016 325.549774,493.482452 324.315918,492.660919 
	C324.315918,492.660919 324.318665,492.916779 324.212524,492.552002 
	C323.808685,492.043396 323.511017,491.899536 323.213379,491.755646 
	C323.213379,491.755646 323.216736,491.815002 323.101440,491.485016 
	C322.067810,490.672668 321.149475,490.190277 320.231171,489.707916 
	C320.231171,489.707916 320.114777,489.997406 320.040680,489.555664 
	C318.398712,488.297638 316.830841,487.481354 315.262970,486.665100 
	C315.262970,486.665100 315.128601,486.725159 315.053101,486.392517 
	C312.736847,484.928741 310.496094,483.797577 308.255310,482.666412 
	C308.255310,482.666412 308.109924,482.797607 308.027771,482.440033 
	C305.707123,480.950378 303.468628,479.818268 301.230103,478.686188 
	C301.230103,478.686188 301.235016,478.956207 301.091492,478.529480 
	C295.866058,475.384552 290.869965,472.488281 285.682465,469.989227 
	C277.537842,466.065582 269.264221,462.409760 261.045197,458.640503 
	C261.045197,458.640503 260.842468,458.493805 260.489258,458.258728 
	C256.438171,456.563629 252.740295,455.103577 249.042419,453.643494 
	C249.042419,453.643524 248.836502,453.496490 248.473969,453.260803 
	C246.754395,452.565094 245.397339,452.105133 244.040268,451.645172 
	C244.040268,451.645172 243.829422,451.504425 243.471771,451.277344 
	C237.500809,448.593353 231.887482,446.136444 226.274139,443.679504 
	C226.274155,443.679504 225.986679,443.752747 226.006729,443.418579 
	C225.137299,442.599457 224.247803,442.114502 223.358322,441.629578 
	C223.358322,441.629578 223.227264,441.657104 223.203308,441.244995 
	C223.100784,439.839294 222.953476,438.845734 222.953461,437.852142 
	C222.951935,369.057434 222.959824,300.262726 222.986145,231.468033 
	C222.986755,229.860138 223.205780,228.252319 223.315964,226.740204 
	C224.288040,226.506104 224.771515,226.264542 225.236755,226.295609 
	C245.599762,227.656250 265.499176,231.399277 284.456055,239.058517 
	C295.076416,243.349503 305.332916,248.541031 315.753357,253.326813 
	C315.753357,253.326813 315.745422,253.273758 315.880737,253.591431 
	C316.959534,254.349350 317.903076,254.789597 318.846588,255.229858 
	C318.846588,255.229858 319.022400,255.076477 319.071472,255.401184 
	C319.666382,255.925049 320.212250,256.124176 320.758087,256.323303 
	C320.758087,256.323303 320.796844,256.087585 320.909546,256.490875 
	C321.962555,257.339935 322.902863,257.785706 323.843140,258.231476 
	C323.843140,258.231476 323.911133,258.043793 323.975739,258.422882 
	C324.973907,259.278839 325.907471,259.755737 326.841034,260.232605 
	C326.841034,260.232605 326.908203,260.040985 326.973938,260.422394 
	C327.972504,261.280823 328.905334,261.757843 329.838196,262.234863 
	C329.838196,262.234863 329.906891,262.038391 329.970612,262.421936 
	C330.954224,263.294464 331.874146,263.783417 332.794037,264.272339 
	C332.794037,264.272339 332.860168,263.997925 332.933960,264.423706 
	C333.912354,265.342377 334.816956,265.835297 335.721558,266.328186 
	C335.721558,266.328186 336.030090,266.190674 336.006683,266.562988 
	C337.264343,267.704712 338.545441,268.474121 339.826508,269.243561 
	C339.826508,269.243561 339.900604,269.027405 339.963501,269.422882 
	C340.948761,270.303223 341.871094,270.788116 342.793396,271.273010 
	C342.793396,271.273010 342.862701,270.997345 342.933380,271.424286 
	C343.908966,272.343506 344.813843,272.835785 345.718750,273.328064 
	C345.718750,273.328064 345.707306,273.378815 345.700623,273.403931 
z"/>
<path fill="#FCFEFD" opacity="1.000000" stroke="none" 
	d="
M251.026321,530.169739 
	C280.082031,534.256287 308.717407,538.150513 337.272552,542.563599 
	C341.660309,543.241699 345.788422,546.111816 349.825287,548.349487 
	C352.113190,549.617737 353.379852,549.436707 355.881073,548.218323 
	C361.884735,545.293762 368.283234,542.430542 374.808563,541.453125 
	C406.683777,536.678528 438.642731,532.455139 470.593414,528.196899 
	C483.604675,526.462830 496.668823,525.124451 509.712067,523.633667 
	C511.282013,523.454224 512.871765,523.448120 514.568115,523.863037 
	C470.919281,563.680725 420.510651,587.471130 360.801483,588.961182 
	C296.554626,590.564453 241.017288,569.016235 193.727142,526.096375 
	C193.885757,525.334961 194.044373,524.573608 194.202972,523.812195 
	C212.995224,525.923889 231.787460,528.035522 251.026321,530.169739 
z"/>
<path fill="#FEFFFD" opacity="1.000000" stroke="none" 
	d="
M349.029175,516.053284 
	C355.614960,513.650940 356.964508,511.825378 356.965576,505.242828 
	C356.969421,481.752533 357.078705,458.261322 356.881927,434.772675 
	C356.836792,429.383057 358.233093,426.009033 363.854706,424.452423 
	C375.168121,421.319855 386.291260,417.495941 397.618591,414.420044 
	C402.029694,413.222290 406.877045,413.693115 411.352905,412.657288 
	C418.066071,411.103790 423.179840,407.021637 427.173218,401.324158 
	C433.726013,391.975159 440.539795,382.809204 447.233673,373.558990 
	C454.527008,363.480499 461.670380,353.289612 469.141968,343.345184 
	C474.708588,335.936157 476.219940,335.716980 485.595032,339.469971 
	C486.040588,368.398224 486.229492,396.800873 486.046356,425.201111 
	C486.010742,430.727081 484.527588,436.243683 483.712128,441.764618 
	C483.712128,441.764618 483.922699,441.718811 483.494690,441.830017 
	C481.171600,443.134308 479.276550,444.327423 477.381470,445.520508 
	C477.381470,445.520508 477.143799,445.481995 476.664978,445.582031 
	C474.242432,446.643707 472.298737,447.605347 470.355011,448.566956 
	C470.355011,448.566956 470.138397,448.500061 469.658447,448.584778 
	C467.237640,449.637115 465.296844,450.604706 463.356018,451.572296 
	C463.356018,451.572296 463.140472,451.507660 462.663208,451.594238 
	C460.252747,452.629272 458.319550,453.577759 456.386322,454.526245 
	C456.386322,454.526245 456.145721,454.489899 455.657898,454.598907 
	C450.905853,456.525482 446.530182,458.122131 442.400055,460.205566 
	C433.112885,464.890289 423.947479,469.816376 414.732544,474.644226 
	C414.732513,474.644196 414.921783,474.771362 414.469177,474.747620 
	C410.599304,476.724915 407.182098,478.725952 403.764893,480.726990 
	C403.764893,480.727020 403.926636,481.003967 403.515625,480.892059 
	C401.660278,481.766907 400.215942,482.753693 398.771637,483.740448 
	C398.771637,483.740448 398.920227,483.995087 398.539368,483.891113 
	C397.348175,484.404144 396.537872,485.021179 395.727539,485.638184 
	C395.727539,485.638184 396.006226,485.890259 395.543030,485.805145 
	C394.286621,486.337097 393.493408,486.954132 392.700226,487.571167 
	C392.700226,487.571167 392.784210,487.703186 392.380737,487.711182 
	C390.218323,489.010101 388.459381,490.301025 386.700470,491.591980 
	C386.700470,491.591980 386.868011,491.777710 386.453796,491.747375 
	C385.276459,492.378967 384.513336,493.040863 383.750214,493.702759 
	C383.750214,493.702759 383.846252,493.933990 383.477417,493.869293 
	C381.985016,494.766876 380.861450,495.729156 379.737854,496.691406 
	C379.737854,496.691406 379.837738,496.829224 379.461853,496.822815 
	C377.644348,498.125031 376.202728,499.433685 374.761078,500.742310 
	C374.761078,500.742310 374.761108,500.791229 374.521790,500.843567 
	C374.102905,501.176697 373.923370,501.457489 373.743805,501.738312 
	C373.743805,501.738312 373.952637,501.934235 373.605164,501.891510 
	C372.937683,502.014923 372.754181,502.276733 372.707245,502.634216 
	C372.707245,502.634216 372.716370,502.740753 372.446625,502.758606 
	C371.874054,502.934479 371.704376,503.183228 371.667877,503.522766 
	C371.667877,503.522766 371.631409,503.600006 371.273315,503.675049 
	C369.199768,505.419800 367.484283,507.089539 365.768799,508.759277 
	C365.768799,508.759277 365.742737,508.869781 365.518951,508.896179 
	C365.120453,509.211975 364.945740,509.501404 364.771057,509.790802 
	C364.771027,509.790802 364.986328,509.957062 364.639282,509.933899 
	C364.113434,510.194366 363.934631,510.477997 363.755798,510.761658 
	C363.755798,510.761658 364.023926,510.916351 363.648865,510.892639 
	C363.089081,511.136353 362.904297,511.403809 362.719543,511.671265 
	C362.719513,511.671234 362.796417,511.901459 362.501923,511.848816 
	C361.898071,511.953674 361.721741,512.204590 361.678497,512.548889 
	C361.678497,512.548889 361.630219,512.623352 361.375549,512.686890 
	C360.840576,512.903442 360.683990,513.138855 360.651123,513.456604 
	C360.651123,513.456604 360.586029,513.542786 360.236237,513.637024 
	C358.837494,514.720154 357.788574,515.709045 356.739655,516.697998 
	C356.739655,516.697998 356.938446,516.708313 356.600586,516.772766 
	C355.940979,516.992188 355.753113,517.246155 355.699158,517.599182 
	C355.699158,517.599182 355.702972,517.728088 355.322418,517.746094 
	C353.411682,518.055908 351.881531,518.347717 350.351349,518.639465 
	C350.351349,518.639465 350.145142,518.936157 350.162415,518.548096 
	C349.993500,517.865356 349.726440,517.707642 349.378479,517.686829 
	C349.378479,517.686829 349.099152,517.709595 349.200439,517.406006 
	C349.210846,516.752686 349.119995,516.403015 349.029175,516.053284 
z"/>
<path fill="#FBFEFD" opacity="1.000000" stroke="none" 
	d="
M284.040070,500.018005 
	C272.833344,496.369598 261.748047,492.277832 250.393936,489.167419 
	C228.427780,483.149841 206.339233,477.567841 184.230667,472.090912 
	C179.841263,471.003510 178.054550,469.547974 178.080444,464.575531 
	C178.384201,406.248016 178.333603,347.918732 178.554016,289.590607 
	C178.594193,278.958984 179.056519,268.295837 180.033325,257.712708 
	C180.673996,250.771210 181.382568,250.774475 188.357620,251.483688 
	C193.655487,252.022369 198.975540,252.341095 204.275375,252.862671 
	C208.496323,253.278076 210.759750,255.226944 210.747665,259.963196 
	C210.611649,313.292023 210.611801,366.621216 210.576935,419.950287 
	C210.572464,426.771790 211.057236,433.636902 210.442673,440.402557 
	C209.820923,447.247406 212.867981,450.956177 218.911377,453.914429 
	C217.269150,464.205811 221.641190,470.142395 230.230469,473.632874 
	C240.356155,477.747711 250.555359,481.697937 260.557465,486.095337 
	C268.418457,489.551392 276.045380,493.545013 283.706238,497.437653 
	C284.141998,497.659119 283.943420,499.129120 284.040070,500.018005 
z"/>
<path fill="#FFFFFD" opacity="1.000000" stroke="none" 
	d="
M496.973633,441.246002 
	C497.064056,440.414764 497.154480,439.583527 497.534180,438.003784 
	C497.893097,435.261566 498.022461,433.267883 498.023499,431.274170 
	C498.044891,390.274323 498.024231,349.274414 498.085327,308.274628 
	C498.097076,300.392639 500.535095,293.822540 506.318176,287.730591 
	C513.649841,280.007355 519.502075,270.879791 526.103088,262.212311 
	C525.914429,262.097137 526.726135,262.592590 527.624329,263.545197 
	C527.807007,266.329346 527.986389,268.656311 527.987244,270.983337 
	C528.010803,334.731964 528.016846,398.480560 528.020813,462.229187 
	C528.020874,463.560303 527.925781,464.891815 527.939636,466.222473 
	C527.976074,469.712494 526.398438,471.739746 522.893921,472.521027 
	C519.041016,473.380005 515.262451,474.572693 511.451538,475.620026 
	C511.451538,475.620026 511.215729,475.474487 510.727600,475.530823 
	C509.527771,475.648987 508.816040,475.710785 508.075439,475.405975 
	C507.320404,471.465851 506.033081,469.366577 501.574371,470.735687 
	C499.389404,471.406616 496.640381,470.240570 493.866638,469.868317 
	C488.424072,474.613586 479.126221,475.818939 474.077209,471.971252 
	C474.803040,471.126099 475.403442,470.125519 476.266724,469.472351 
	C480.631104,466.170410 485.082367,462.983673 489.467865,459.709229 
	C494.658691,455.833496 497.486847,449.615692 496.184326,445.090179 
	C496.240234,444.569366 496.296173,444.048553 496.609192,442.999451 
	C496.902039,442.062775 496.937836,441.654388 496.973633,441.246002 
z"/>
<path fill="#DEE4D7" opacity="1.000000" stroke="none" 
	d="
M170.948441,481.558258 
	C181.830231,483.577698 192.803650,485.200195 203.577667,487.686615 
	C245.936005,497.462219 286.732239,512.166992 327.326782,527.466736 
	C329.364319,528.234680 331.348480,529.144104 333.357483,529.987671 
	C333.251892,530.472229 333.146301,530.956787 333.040710,531.441406 
	C332.086212,531.523132 331.098083,531.808289 330.182190,531.656738 
	C306.940918,527.811951 283.768066,523.496826 260.455353,520.156494 
	C236.463730,516.719055 212.337921,514.216919 188.268494,511.324890 
	C184.475021,510.869110 180.669235,510.515717 176.584320,509.706207 
	C176.779541,505.357239 173.439636,506.343781 171.669296,506.130524 
	C166.428940,505.499420 161.133591,505.279663 155.853195,505.048248 
	C153.678284,504.952942 151.941086,504.912140 151.963638,501.949982 
	C151.986649,498.923828 153.852570,498.932617 155.961029,498.981689 
	C170.541138,499.321106 185.121292,499.658417 199.701736,499.983215 
	C201.547607,500.024323 203.395203,499.988831 205.241989,499.988831 
	C205.374863,499.359161 205.507736,498.729462 205.640594,498.099792 
	C197.103653,494.736115 188.535553,491.448517 180.044815,487.972015 
	C176.568405,486.548615 171.987274,486.507599 170.948441,481.558258 
z"/>
<path fill="#F9FEFC" opacity="1.000000" stroke="none" 
	d="
M523.805481,484.462830 
	C540.518494,480.250610 541.388245,479.038269 541.233887,461.660858 
	C541.151001,452.333466 541.256165,443.003479 541.374878,433.675903 
	C541.403992,431.385162 541.818237,429.099365 542.041321,426.947784 
	C551.707581,425.156708 560.092957,430.548126 565.255066,441.514343 
	C570.042725,451.685028 568.447998,460.717377 560.037720,467.669861 
	C559.093933,464.151642 558.239807,460.967560 557.015747,456.404694 
	C557.015747,470.637726 557.040039,483.452881 556.991882,496.267761 
	C556.983826,498.416473 556.545898,500.562073 556.510986,502.712463 
	C556.453308,506.263428 554.317627,506.952148 551.287415,507.227997 
	C529.760071,509.187469 508.243835,511.270264 486.725250,513.326050 
	C486.066437,513.388977 485.420471,513.586182 484.204773,513.452942 
	C482.868622,512.691895 482.096130,512.198669 480.807465,511.375854 
	C492.015442,507.286682 502.324188,503.960571 512.263123,499.759644 
	C519.993530,496.492218 521.359497,492.997620 520.011230,485.130554 
	C520.011230,485.130554 520.065430,484.994232 520.448303,485.026154 
	C521.822632,484.859680 522.814026,484.661255 523.805481,484.462830 
z"/>
<path fill="#DEE4D7" opacity="1.000000" stroke="none" 
	d="
M495.894073,445.260223 
	C497.486847,449.615692 494.658691,455.833496 489.467865,459.709229 
	C485.082367,462.983673 480.631104,466.170410 476.266724,469.472351 
	C475.403442,470.125519 474.803040,471.126099 474.077209,471.971252 
	C479.126221,475.818939 488.424072,474.613586 493.866638,469.868317 
	C496.640381,470.240570 499.389404,471.406616 501.574371,470.735687 
	C506.033081,469.366577 507.320404,471.465851 507.693909,475.539520 
	C503.077637,477.254700 498.813965,478.469666 494.550323,479.684631 
	C494.550323,479.684662 494.272278,479.529755 493.718689,479.596130 
	C490.954193,480.327454 488.743256,480.992432 486.532318,481.657410 
	C486.532318,481.657410 486.252045,481.517792 485.691437,481.599792 
	C477.963531,483.679626 470.757568,485.550201 463.639801,487.711273 
	C456.550354,489.863831 449.549347,492.307831 442.509552,494.624084 
	C442.509552,494.624054 442.231628,494.492249 441.681152,494.588684 
	C438.266632,495.477875 435.327179,496.067352 432.551331,497.097656 
	C418.632019,502.264099 404.755493,507.545898 390.863953,512.787170 
	C390.863953,512.787170 390.868256,512.784363 390.482727,512.798096 
	C382.979156,516.409790 375.861176,520.007812 368.743195,523.605896 
	C368.743195,523.605896 368.832733,523.691162 368.419464,523.708679 
	C366.404755,524.111389 364.803314,524.496582 363.201874,524.881775 
	C386.600983,503.139160 413.634949,486.950012 442.266998,473.226135 
	C457.130219,466.101929 472.114868,459.228241 486.909058,451.965149 
	C490.106140,450.395569 492.720856,447.639709 495.894073,445.260223 
z"/>
<path fill="#FAFEFC" opacity="1.000000" stroke="none" 
	d="
M170.659241,481.328369 
	C171.987274,486.507599 176.568405,486.548615 180.044815,487.972015 
	C188.535553,491.448517 197.103653,494.736115 205.640594,498.099792 
	C205.507736,498.729462 205.374863,499.359161 205.241989,499.988831 
	C203.395203,499.988831 201.547607,500.024323 199.701736,499.983215 
	C185.121292,499.658417 170.541138,499.321106 155.961029,498.981689 
	C153.852570,498.932617 151.986649,498.923828 151.963638,501.949982 
	C151.941086,504.912140 153.678284,504.952942 155.853195,505.048248 
	C161.133591,505.279663 166.428940,505.499420 171.669296,506.130524 
	C173.439636,506.343781 176.779541,505.357239 176.179703,509.612671 
	C167.168289,509.428284 158.276627,508.928680 148.891357,508.401367 
	C148.891357,499.528900 148.598541,491.395355 148.983292,483.293976 
	C149.295471,476.720734 148.055603,470.948792 144.173157,465.496429 
	C140.410995,460.212952 139.176910,454.033722 139.531769,447.498871 
	C139.999863,438.879181 144.620087,433.274811 152.145035,429.872406 
	C155.702271,428.263977 159.519516,427.230591 163.851135,425.715546 
	C164.186249,428.828583 164.618927,431.086639 164.640839,433.348694 
	C164.750412,444.665894 164.890945,455.986053 164.732620,467.301147 
	C164.655304,472.826569 166.250183,477.413574 170.659241,481.328369 
z"/>
<path fill="#F9FEFD" opacity="1.000000" stroke="none" 
	d="
M538.753052,242.509872 
	C539.298279,239.548874 539.435730,236.665894 540.752869,234.500656 
	C542.886169,230.993835 545.794067,227.958221 548.368774,224.731277 
	C558.560974,232.182175 584.442810,286.290131 582.550049,297.090942 
	C579.731445,296.484467 576.862549,296.039398 574.095886,295.240356 
	C564.999634,292.613190 555.985168,289.691711 546.847595,287.222900 
	C542.426392,286.028320 541.349243,283.292358 541.144653,279.179230 
	C540.543152,267.081818 539.652466,254.998795 538.753052,242.509872 
z"/>
<path fill="#DDE4D7" opacity="1.000000" stroke="none" 
	d="
M519.591309,485.101837 
	C521.359497,492.997620 519.993530,496.492218 512.263123,499.759644 
	C502.324188,503.960571 492.015442,507.286682 480.807465,511.375854 
	C482.096130,512.198669 482.868622,512.691895 483.794678,513.429565 
	C464.081787,516.468689 444.177094,519.020264 424.360901,522.134949 
	C408.489410,524.629517 392.725555,527.808594 376.913696,530.682678 
	C375.118042,531.009094 373.321014,531.328003 371.524597,531.650330 
	C371.465332,531.237244 371.406036,530.824158 371.346771,530.411072 
	C374.994995,528.906372 378.597931,527.278625 382.298462,525.916077 
	C421.605804,511.443268 461.404602,498.538971 502.140594,488.666321 
	C507.776764,487.300354 513.492493,486.262756 519.591309,485.101837 
z"/>
<path fill="#DEE4D7" opacity="1.000000" stroke="none" 
	d="
M284.298065,500.254761 
	C283.943420,499.129120 284.141998,497.659119 283.706238,497.437653 
	C276.045380,493.545013 268.418457,489.551392 260.557465,486.095337 
	C250.555359,481.697937 240.356155,477.747711 230.230469,473.632874 
	C221.641190,470.142395 217.269150,464.205811 219.150482,454.154419 
	C263.135895,471.333527 307.785034,487.718475 342.134308,524.209656 
	C322.094452,515.954651 303.325256,508.223083 284.298065,500.254761 
z"/>
<path fill="#48D3EE" opacity="1.000000" stroke="none" 
	d="
M315.669952,252.988464 
	C305.332916,248.541031 295.076416,243.349503 284.456055,239.058517 
	C265.499176,231.399277 245.599762,227.656250 225.236755,226.295609 
	C224.771515,226.264542 224.288040,226.506104 223.315964,226.740204 
	C223.205780,228.252319 222.986755,229.860138 222.986145,231.468033 
	C222.959824,300.262726 222.951935,369.057434 222.953461,437.852142 
	C222.953476,438.845734 223.100784,439.839294 223.263947,441.273376 
	C222.587158,438.817383 221.167053,435.922150 221.161240,433.024139 
	C221.032303,368.742279 221.042084,304.460114 221.097946,240.178040 
	C221.101532,236.050583 221.451508,231.881607 222.164093,227.823944 
	C222.359146,226.713303 224.540558,225.046860 225.671341,225.150650 
	C233.566864,225.875290 241.462952,226.768890 249.289566,228.036301 
	C272.990814,231.874390 295.085449,240.141449 315.669952,252.988464 
z"/>
<path fill="#CAE6E1" opacity="1.000000" stroke="none" 
	d="
M527.537781,263.088043 
	C526.726135,262.592590 525.914429,262.097137 526.103088,262.212311 
	C519.502075,270.879791 513.649841,280.007355 506.318176,287.730591 
	C500.535095,293.822540 498.097076,300.392639 498.085327,308.274628 
	C498.024231,349.274414 498.044891,390.274323 498.023499,431.274170 
	C498.022461,433.267883 497.893097,435.261566 497.607666,437.591980 
	C497.289764,436.607422 497.098206,435.286133 497.098511,433.964905 
	C497.109467,387.484406 497.167175,341.003845 497.127563,294.523407 
	C497.122772,288.893494 498.918976,284.257050 502.615021,279.997650 
	C509.813293,271.702179 516.719482,263.153259 524.197144,254.266571 
	C525.248291,253.433243 525.848816,253.042648 526.784302,252.434250 
	C527.062378,256.366333 527.300110,259.727203 527.537781,263.088043 
z"/>
<path fill="#45D2ED" opacity="1.000000" stroke="none" 
	d="
M527.624329,263.545197 
	C527.300110,259.727203 527.062378,256.366333 526.784302,252.434250 
	C525.848816,253.042648 525.248291,253.433243 524.363098,253.979935 
	C524.728760,253.028992 525.379028,251.921951 526.029297,250.814911 
	C526.493713,250.901779 526.958191,250.988647 527.422607,251.075516 
	C527.935486,254.385391 528.840942,257.688446 528.898804,261.006256 
	C529.341980,286.438812 529.923584,311.874756 529.882202,337.308685 
	C529.811829,380.556702 529.264465,423.803802 529.095093,467.051971 
	C529.080627,470.732727 527.814087,472.808228 524.512146,473.577637 
	C520.499207,474.512756 516.407227,475.109131 511.900513,475.736023 
	C515.262451,474.572693 519.041016,473.380005 522.893921,472.521027 
	C526.398438,471.739746 527.976074,469.712494 527.939636,466.222473 
	C527.925781,464.891815 528.020874,463.560303 528.020813,462.229187 
	C528.016846,398.480560 528.010803,334.731964 527.987244,270.983337 
	C527.986389,268.656311 527.807007,266.329346 527.624329,263.545197 
z"/>
<path fill="#48D3EE" opacity="1.000000" stroke="none" 
	d="
M484.085358,441.693665 
	C484.527588,436.243683 486.010742,430.727081 486.046356,425.201111 
	C486.229492,396.800873 486.040588,368.398224 485.974640,339.535736 
	C486.084564,327.051849 486.230591,315.028717 486.261200,303.005310 
	C486.263550,302.077240 485.454132,301.147156 484.606781,300.234070 
	C484.998840,299.200317 485.806152,298.150482 487.373413,296.112396 
	C487.705536,298.418915 487.952972,299.339447 487.953644,300.260162 
	C487.966705,317.918884 488.065399,335.578613 487.909943,353.236053 
	C487.741608,372.358948 487.295532,391.479248 487.042480,410.601593 
	C486.937653,418.522308 487.216736,426.453430 486.899170,434.362885 
	C486.800812,436.811523 485.311188,439.204346 484.085358,441.693665 
z"/>
<path fill="#45D2ED" opacity="1.000000" stroke="none" 
	d="
M391.253235,512.849487 
	C404.755493,507.545898 418.632019,502.264099 432.551331,497.097656 
	C435.327179,496.067352 438.266632,495.477875 441.546295,494.662659 
	C441.654999,495.019012 441.421936,495.609528 441.030426,495.746246 
	C424.576660,501.493408 408.108704,507.200043 391.253235,512.849487 
z"/>
<path fill="#48D3EE" opacity="1.000000" stroke="none" 
	d="
M415.104980,474.727325 
	C423.947479,469.816376 433.112885,464.890289 442.400055,460.205566 
	C446.530182,458.122131 450.905853,456.525482 455.561707,454.673370 
	C452.237915,456.613556 448.570160,458.684845 444.797974,460.544220 
	C435.049042,465.349548 425.254028,470.061310 415.104980,474.727325 
z"/>
<path fill="#48D3EE" opacity="1.000000" stroke="none" 
	d="
M261.183411,458.976685 
	C269.264221,462.409760 277.537842,466.065582 285.682465,469.989227 
	C290.869965,472.488281 295.866058,475.384552 301.100220,478.393311 
	C298.530426,477.619354 295.708160,476.755585 293.103912,475.455231 
	C282.473541,470.147034 271.909882,464.705353 261.183411,458.976685 
z"/>
<path fill="#45D2ED" opacity="1.000000" stroke="none" 
	d="
M442.929993,494.726257 
	C449.549347,492.307831 456.550354,489.863831 463.639801,487.711273 
	C470.757568,485.550201 477.963531,483.679626 485.549164,481.665100 
	C482.354431,483.030487 478.811951,484.649872 475.114899,485.749603 
	C464.560425,488.889069 453.943085,491.817200 442.929993,494.726257 
z"/>
<path fill="#45D2ED" opacity="1.000000" stroke="none" 
	d="
M369.111877,523.696899 
	C375.861176,520.007812 382.979156,516.409790 390.473328,512.788208 
	C383.726501,516.439026 376.603546,520.113464 369.111877,523.696899 
z"/>
<path fill="#48D3EE" opacity="1.000000" stroke="none" 
	d="
M226.317200,444.034607 
	C231.887482,446.136444 237.500809,448.593353 243.350311,451.313629 
	C237.844406,449.181183 232.102325,446.785431 226.317200,444.034607 
z"/>
<path fill="#45D2ED" opacity="1.000000" stroke="none" 
	d="
M362.847839,524.948364 
	C364.803314,524.496582 366.404755,524.111389 368.358185,523.700439 
	C365.888458,525.611389 363.066742,527.547974 360.245056,529.484619 
	C359.849640,528.902283 359.454254,528.319946 359.058868,527.737610 
	C360.203857,526.830017 361.348846,525.922485 362.847839,524.948364 
z"/>
<path fill="#45D2ED" opacity="1.000000" stroke="none" 
	d="
M494.995178,479.777649 
	C498.813965,478.469666 503.077637,477.254700 507.722809,475.906158 
	C508.816040,475.710785 509.527771,475.648987 510.602356,475.590027 
	C505.790131,477.018799 500.615082,478.444733 494.995178,479.777649 
z"/>
<path fill="#48D3EE" opacity="1.000000" stroke="none" 
	d="
M404.136230,480.784424 
	C407.182098,478.725952 410.599304,476.724915 414.376709,474.691101 
	C411.327118,476.719482 407.917328,478.780670 404.136230,480.784424 
z"/>
<path fill="#48D3EE" opacity="1.000000" stroke="none" 
	d="
M338.167542,505.153229 
	C340.249878,506.776581 342.303955,508.755829 344.627350,510.933472 
	C345.002747,511.485748 345.108795,511.839661 345.245087,512.468994 
	C342.896637,510.332672 340.517944,507.920898 338.167542,505.153229 
z"/>
<path fill="#48D3EE" opacity="1.000000" stroke="none" 
	d="
M249.185959,453.982147 
	C252.740295,455.103577 256.438171,456.563629 260.367340,458.286835 
	C256.842255,457.140259 253.085876,455.730530 249.185959,453.982147 
z"/>
<path fill="#48D3EE" opacity="1.000000" stroke="none" 
	d="
M331.373138,498.981934 
	C333.594269,500.475067 335.806854,502.319458 338.112122,504.484589 
	C335.924713,502.981262 333.644653,501.157196 331.373138,498.981934 
z"/>
<path fill="#48D3EE" opacity="1.000000" stroke="none" 
	d="
M366.123779,508.798950 
	C367.484283,507.089539 369.199768,505.419800 371.230652,503.676392 
	C369.856995,505.348053 368.167877,507.093353 366.123779,508.798950 
z"/>
<path fill="#48D3EE" opacity="1.000000" stroke="none" 
	d="
M301.318024,479.021545 
	C303.468628,479.818268 305.707123,480.950378 308.103699,482.368225 
	C305.976501,481.554962 303.691223,480.455933 301.318024,479.021545 
z"/>
<path fill="#48D3EE" opacity="1.000000" stroke="none" 
	d="
M477.770569,445.634186 
	C479.276550,444.327423 481.171600,443.134308 483.386780,441.837952 
	C481.857849,443.072449 480.008759,444.410156 477.770569,445.634186 
z"/>
<path fill="#48D3EE" opacity="1.000000" stroke="none" 
	d="
M387.056213,491.686951 
	C388.459381,490.301025 390.218323,489.010101 392.312195,487.673462 
	C390.902100,489.012512 389.157043,490.397247 387.056213,491.686951 
z"/>
<path fill="#48D3EE" opacity="1.000000" stroke="none" 
	d="
M308.333496,483.004700 
	C310.496094,483.797577 312.736847,484.928741 315.123840,486.354370 
	C312.983917,485.546906 310.697815,484.444977 308.333496,483.004700 
z"/>
<path fill="#48D3EE" opacity="1.000000" stroke="none" 
	d="
M375.113312,500.788330 
	C376.202728,499.433685 377.644348,498.125031 379.417023,496.759338 
	C378.320557,498.079620 376.893036,499.456970 375.113312,500.788330 
z"/>
<path fill="#48D3EE" opacity="1.000000" stroke="none" 
	d="
M350.361938,518.992065 
	C351.881531,518.347717 353.411682,518.055908 355.282410,517.695557 
	C354.608246,520.447510 353.321228,522.435730 350.361938,518.992065 
z"/>
<path fill="#48D3EE" opacity="1.000000" stroke="none" 
	d="
M456.770935,454.639191 
	C458.319550,453.577759 460.252747,452.629272 462.566162,451.651123 
	C461.016052,452.665009 459.085785,453.708557 456.770935,454.639191 
z"/>
<path fill="#48D3EE" opacity="1.000000" stroke="none" 
	d="
M463.746582,451.612793 
	C465.296844,450.604706 467.237640,449.637115 469.560089,448.641174 
	C468.006866,449.626312 466.072021,450.639771 463.746582,451.612793 
z"/>
<path fill="#48D3EE" opacity="1.000000" stroke="none" 
	d="
M399.130341,483.795471 
	C400.215942,482.753693 401.660278,481.766907 403.445831,480.747894 
	C402.354401,481.760590 400.921722,482.805573 399.130341,483.795471 
z"/>
<path fill="#45D2ED" opacity="1.000000" stroke="none" 
	d="
M486.949158,481.753723 
	C488.743256,480.992432 490.954193,480.327454 493.571259,479.656006 
	C491.773590,480.383026 489.569763,481.116547 486.949158,481.753723 
z"/>
<path fill="#48D3EE" opacity="1.000000" stroke="none" 
	d="
M470.745392,448.608521 
	C472.298737,447.605347 474.242432,446.643707 476.568115,445.653503 
	C475.011993,446.633331 473.073883,447.641693 470.745392,448.608521 
z"/>
<path fill="#48D3EE" opacity="1.000000" stroke="none" 
	d="
M324.334778,493.014313 
	C325.549774,493.482452 326.783661,494.304016 328.128906,495.430115 
	C326.944733,494.945709 325.649200,494.156708 324.334778,493.014313 
z"/>
<path fill="#48D3EE" opacity="1.000000" stroke="none" 
	d="
M315.336853,487.003357 
	C316.830841,487.481354 318.398712,488.297638 320.105499,489.411194 
	C318.633179,488.919495 317.021942,488.130524 315.336853,487.003357 
z"/>
<path fill="#48D3EE" opacity="1.000000" stroke="none" 
	d="
M357.092773,516.758545 
	C357.788574,515.709045 358.837494,514.720154 360.185425,513.655396 
	C359.471558,514.659302 358.458710,515.739197 357.092773,516.758545 
z"/>
<path fill="#48D3EE" opacity="1.000000" stroke="none" 
	d="
M339.754456,268.899719 
	C338.545441,268.474121 337.264343,267.704712 335.855103,266.640930 
	C337.045410,267.083008 338.363892,267.819427 339.754456,268.899719 
z"/>
<path fill="#48D3EE" opacity="1.000000" stroke="none" 
	d="
M380.087433,496.755493 
	C380.861450,495.729156 381.985016,494.766876 383.435486,493.756104 
	C382.653870,494.744934 381.545441,495.782257 380.087433,496.755493 
z"/>
<path fill="#48D3EE" opacity="1.000000" stroke="none" 
	d="
M348.760468,515.901489 
	C349.119995,516.403015 349.210846,516.752686 349.336304,517.371704 
	C348.301575,516.586365 347.232239,515.531860 346.217346,514.124084 
	C347.011749,514.430481 347.751740,515.090149 348.760468,515.901489 
z"/>
<path fill="#48D3EE" opacity="1.000000" stroke="none" 
	d="
M244.197678,451.995422 
	C245.397339,452.105133 246.754395,452.565094 248.351074,453.290771 
	C247.178818,453.152832 245.766953,452.749237 244.197678,451.995422 
z"/>
<path fill="#48D3EE" opacity="1.000000" stroke="none" 
	d="
M329.761780,261.897583 
	C328.905334,261.757843 327.972504,261.280823 326.918213,260.507263 
	C327.759613,260.660583 328.722473,261.110443 329.761780,261.897583 
z"/>
<path fill="#48D3EE" opacity="1.000000" stroke="none" 
	d="
M320.284119,490.053802 
	C321.149475,490.190277 322.067810,490.672668 323.108032,491.448242 
	C322.265686,491.294189 321.301392,490.846924 320.284119,490.053802 
z"/>
<path fill="#48D3EE" opacity="1.000000" stroke="none" 
	d="
M393.044098,487.676636 
	C393.493408,486.954132 394.286621,486.337097 395.394409,485.690308 
	C394.935333,486.367767 394.161652,487.074951 393.044098,487.676636 
z"/>
<path fill="#48D3EE" opacity="1.000000" stroke="none" 
	d="
M396.071320,485.724670 
	C396.537872,485.021179 397.348175,484.404144 398.478516,483.756927 
	C398.004089,484.421539 397.209595,485.116364 396.071320,485.724670 
z"/>
<path fill="#48D3EE" opacity="1.000000" stroke="none" 
	d="
M384.099121,493.767700 
	C384.513336,493.040863 385.276459,492.378967 386.350464,491.676941 
	C385.923553,492.368744 385.185791,493.100677 384.099121,493.767700 
z"/>
<path fill="#48D3EE" opacity="1.000000" stroke="none" 
	d="
M323.763031,257.891296 
	C322.902863,257.785706 321.962555,257.339935 320.882935,256.611633 
	C321.723358,256.736420 322.703125,257.143768 323.763031,257.891296 
z"/>
<path fill="#48D3EE" opacity="1.000000" stroke="none" 
	d="
M318.764038,254.889816 
	C317.903076,254.789597 316.959534,254.349350 315.876770,253.626495 
	C316.718872,253.745850 317.700165,254.147812 318.764038,254.889816 
z"/>
<path fill="#48D3EE" opacity="1.000000" stroke="none" 
	d="
M326.763367,259.895813 
	C325.907471,259.755737 324.973907,259.278839 323.919312,258.505188 
	C324.760742,258.658630 325.723206,259.108795 326.763367,259.895813 
z"/>
<path fill="#48D3EE" opacity="1.000000" stroke="none" 
	d="
M332.733948,263.929932 
	C331.874146,263.783417 330.954224,263.294464 329.914612,262.509644 
	C330.754517,262.671722 331.714172,263.129608 332.733948,263.929932 
z"/>
<path fill="#48D3EE" opacity="1.000000" stroke="none" 
	d="
M335.685547,265.978149 
	C334.816956,265.835297 333.912354,265.342377 332.886810,264.556946 
	C333.727081,264.718994 334.688324,265.173553 335.685547,265.978149 
z"/>
<path fill="#48D3EE" opacity="1.000000" stroke="none" 
	d="
M342.733276,270.930267 
	C341.871094,270.788116 340.948761,270.303223 339.906769,269.522034 
	C340.749115,269.679688 341.711151,270.133606 342.733276,270.930267 
z"/>
<path fill="#48D3EE" opacity="1.000000" stroke="none" 
	d="
M223.367172,441.985229 
	C224.247803,442.114502 225.137299,442.599457 226.148315,443.370544 
	C225.305252,443.218140 224.340637,442.779541 223.367172,441.985229 
z"/>
<path fill="#48D3EE" opacity="1.000000" stroke="none" 
	d="
M345.684265,272.977966 
	C344.813843,272.835785 343.908966,272.343506 342.884766,271.558044 
	C343.726898,271.719177 344.688354,272.173523 345.684265,272.977966 
z"/>
<path fill="#DDE4D7" opacity="1.000000" stroke="none" 
	d="
M523.497437,484.345642 
	C522.814026,484.661255 521.822632,484.859680 520.518127,485.048706 
	C521.199829,484.769043 522.194580,484.498749 523.497437,484.345642 
z"/>
<path fill="#48D3EE" opacity="1.000000" stroke="none" 
	d="
M482.027527,302.417236 
	C482.095337,302.887878 481.841522,303.385620 481.335938,304.027679 
	C481.291443,303.596130 481.498688,303.020233 482.027527,302.417236 
z"/>
<path fill="#48D3EE" opacity="1.000000" stroke="none" 
	d="
M320.683350,256.005005 
	C320.212250,256.124176 319.666382,255.925049 318.974792,255.466232 
	C319.422241,255.366608 320.015442,255.526657 320.683350,256.005005 
z"/>
<path fill="#DEE4D7" opacity="1.000000" stroke="none" 
	d="
M496.776123,441.367737 
	C496.937836,441.654388 496.902039,442.062775 496.730835,442.625549 
	C496.589813,442.349762 496.584198,441.919647 496.776123,441.367737 
z"/>
<path fill="#48D3EE" opacity="1.000000" stroke="none" 
	d="
M362.996735,511.668884 
	C362.904297,511.403809 363.089081,511.136353 363.518311,510.807556 
	C363.599823,511.052979 363.436890,511.359741 362.996735,511.668884 
z"/>
<path fill="#48D3EE" opacity="1.000000" stroke="none" 
	d="
M483.005249,301.343658 
	C483.264313,301.662201 483.129517,301.927490 482.652283,302.202209 
	C482.538727,301.969788 482.639221,301.662750 483.005249,301.343658 
z"/>
<path fill="#48D3EE" opacity="1.000000" stroke="none" 
	d="
M349.371765,517.965454 
	C349.726440,517.707642 349.993500,517.865356 350.248291,518.389160 
	C349.999603,518.493530 349.682343,518.368774 349.371765,517.965454 
z"/>
<path fill="#48D3EE" opacity="1.000000" stroke="none" 
	d="
M355.976105,517.621399 
	C355.753113,517.246155 355.940979,516.992188 356.501953,516.783691 
	C356.578491,517.034668 356.415771,517.339111 355.976105,517.621399 
z"/>
<path fill="#48D3EE" opacity="1.000000" stroke="none" 
	d="
M483.951050,300.251129 
	C484.200684,300.548401 484.058289,300.837616 483.555756,301.152771 
	C483.447754,300.931366 483.568878,300.619476 483.951050,300.251129 
z"/>
<path fill="#48D3EE" opacity="1.000000" stroke="none" 
	d="
M360.923645,513.519226 
	C360.683990,513.138855 360.840576,512.903442 361.332825,512.698730 
	C361.428558,512.958618 361.312378,513.270264 360.923645,513.519226 
z"/>
<path fill="#48D3EE" opacity="1.000000" stroke="none" 
	d="
M345.290924,513.043396 
	C345.537231,512.947998 345.815582,513.118042 346.159180,513.533203 
	C345.923950,513.621765 345.623444,513.465332 345.290924,513.043396 
z"/>
<path fill="#48D3EE" opacity="1.000000" stroke="none" 
	d="
M361.954956,512.583740 
	C361.721741,512.204590 361.898071,511.953674 362.439545,511.744751 
	C362.524902,512.001709 362.378143,512.310181 361.954956,512.583740 
z"/>
<path fill="#48D3EE" opacity="1.000000" stroke="none" 
	d="
M328.268738,496.026489 
	C328.518219,495.906891 328.813141,496.060242 329.191620,496.455811 
	C328.954834,496.565125 328.634521,496.432281 328.268738,496.026489 
z"/>
<path fill="#48D3EE" opacity="1.000000" stroke="none" 
	d="
M364.029541,510.728027 
	C363.934631,510.477997 364.113434,510.194366 364.541718,509.839111 
	C364.628540,510.076447 364.465912,510.385406 364.029541,510.728027 
z"/>
<path fill="#48D3EE" opacity="1.000000" stroke="none" 
	d="
M365.042969,509.747009 
	C364.945740,509.501404 365.120453,509.211975 365.545227,508.847076 
	C365.635132,509.082153 365.474976,509.392700 365.042969,509.747009 
z"/>
<path fill="#48D3EE" opacity="1.000000" stroke="none" 
	d="
M371.943848,503.564270 
	C371.704376,503.183228 371.874054,502.934479 372.404602,502.725586 
	C372.494812,502.985046 372.357330,503.295441 371.943848,503.564270 
z"/>
<path fill="#48D3EE" opacity="1.000000" stroke="none" 
	d="
M372.985077,502.644409 
	C372.754181,502.276733 372.937683,502.014923 373.498444,501.790344 
	C373.580414,502.039459 373.421661,502.347015 372.985077,502.644409 
z"/>
<path fill="#48D3EE" opacity="1.000000" stroke="none" 
	d="
M374.019165,501.712708 
	C373.923370,501.457489 374.102905,501.176697 374.531616,500.827789 
	C374.618652,501.068817 374.456573,501.377960 374.019165,501.712708 
z"/>
<path fill="#48D3EE" opacity="1.000000" stroke="none" 
	d="
M330.327026,497.987671 
	C330.659729,497.718292 330.939209,497.863098 331.230530,498.370941 
	C330.990082,498.487091 330.667236,498.376404 330.327026,497.987671 
z"/>
<path fill="#48D3EE" opacity="1.000000" stroke="none" 
	d="
M323.263092,492.028442 
	C323.511017,491.899536 323.808685,492.043396 324.195862,492.425537 
	C323.961212,492.542969 323.636993,492.422089 323.263092,492.028442 
z"/>
<path fill="#48D3EE" opacity="1.000000" stroke="none" 
	d="
M329.317627,496.996796 
	C329.580597,496.882233 329.861359,497.045013 330.214172,497.447815 
	C329.969299,497.549927 329.652344,497.412048 329.317627,496.996796 
z"/>
</svg>