<svg xmlns="http://www.w3.org/2000/svg" xmlns:xlink="http://www.w3.org/1999/xlink" version="1.1" x="0px" y="0px" viewBox="0 0 900 1080" style="enable-background:new 0 0 1920 1080;" xml:space="preserve">

<g id="OBJECTS">
	<g>
		<path style="fillRule:evenodd;clip-rule:evenodd;fill:#F0D7C9;" d="M141.344,353.632c0,0,645.702-34.194,677.872,17.996    c32.17,52.19,68.936,435.515-45.958,458.91c-114.894,23.396-653.705,21.948-662.897-24.843    C101.169,758.904,77.004,360.831,141.344,353.632z"/>
		<g>
			<g>
				<path style="fillRule:evenodd;clip-rule:evenodd;fill:#383046;" d="M515.831,373.41c113.805,0,206.061,92.257,206.061,206.062      c0,113.805-92.256,206.062-206.061,206.062c-113.805,0-206.061-92.257-206.061-206.062      C309.77,465.667,402.026,373.41,515.831,373.41L515.831,373.41z M515.831,430.066c-82.514,0-149.405,66.891-149.405,149.405      c0,82.515,66.891,149.406,149.405,149.406c82.514,0,149.405-66.891,149.405-149.406      C665.236,496.957,598.345,430.066,515.831,430.066z"/>
				<path style="fillRule:evenodd;clip-rule:evenodd;fill:#383046;" d="M570.215,516.39c0,0-98.022-18.999-140.84,59.517      c-29.243,34.921-71.635,42.541-71.635,42.541s10.449,84.506,24.08,46.796c42.439-117.412,192.578-6.354,148.11,76.782      c57.245-5.907,97.226-29.531,97.226-29.531c-77.639-8.211-119.933-189.445,42.253-160.832c0,0-1.818-15.901-3.181-19.536      c-1.363-3.635-5.615-57.956-11.521-33.423C649.773,519.215,591.923,520.6,570.215,516.39z"/>
			</g>
			<g>
				<path style="fillRule:evenodd;clip-rule:evenodd;fill:#C97068;" d="M825.964,627.597l18.045-10.617      c0,0-18.484-24.195-24.819-30.332c-6.335-6.136-15.45-8.827-15.45-8.827s-7.87-9.969-13.804-12.257      c-5.934-2.287-46.795-29.37-46.795-29.37l17.427,47.176L825.964,627.597z"/>
				<path style="fillRule:evenodd;clip-rule:evenodd;fill:#E39280;" d="M811.671,735.488c0,0,8.164-55.938,32.212-118.464      c0,0-57.097-43.139-116.755-57.58c0,0-45.003,110.823,16.952,175.002L811.671,735.488z"/>
				<path style="fillRule:evenodd;clip-rule:evenodd;fill:#E39280;" d="M775.244,601.514c0,0-22.403-57.74-26.322-72.101      c0,0-23.141-18.601-32.129-35.71c-6.684-12.725-32.58,8.229,3.599,51.543c0,0,1.575,17.245-1.929,42.35      C714.959,612.7,775.244,601.514,775.244,601.514z"/>
				<path style="fillRule:evenodd;clip-rule:evenodd;fill:#E39280;" d="M741.407,667.466c0,0-35.409-16.116-52.358-51.219      c0,0-10.085-34.168-35.251-38.797c-25.166-4.628-27.789,8.89-25.982,14.037c1.808,5.147,22.464,12.929,41.4,53.695      c18.936,40.765,14.419,67.313,74.865,89.265C744.08,734.447,753.114,687.641,741.407,667.466z"/>
			</g>
			<path style="fillRule:evenodd;clip-rule:evenodd;fill:#E39280;" d="M753.922,690.741l-9.841,43.707l25.474,180.918l0.31-0.05     c-0.103,0.179-0.212,0.357-0.31,0.535c0,0,4.973,53.772,64.788,48.06c59.815-5.712,65.641-52.495,61.947-69.195     c0,0-73.083-91.288-84.619-159.229C811.671,735.487,786.168,697.704,753.922,690.741z"/>
			<path style="fillRule:evenodd;clip-rule:evenodd;fill:#E39280;" d="M253.598,619.031l-3.325,44.677l-77.099,165.64     c0,0-15.474,49.936-72.029,42.746c-56.555-7.19-81.742-72.773-43.185-99.438c0,0,96.517-66.023,127.353-127.651     C185.313,645.004,220.722,616.294,253.598,619.031z"/>
			<g>
				<g>
					<path style="fillRule:evenodd;clip-rule:evenodd;fill:#C97068;" d="M203.088,537.631l-14.168-15.415       c0,0,24.734-17.757,32.582-21.781c7.848-4.024,17.352-3.941,17.352-3.941s10.434-7.243,16.777-7.702       c6.343-0.459,53.323-14.457,53.323-14.457l-30.42,40.049L203.088,537.631z"/>
					<path style="fillRule:evenodd;clip-rule:evenodd;fill:#E39280;" d="M185.313,645.005c0,0,8.494-55.889,3.714-122.709       c0,0,67.191-24.625,128.468-21.051c0,0,10.748,119.128-67.222,162.464L185.313,645.005z"/>
					<path style="fillRule:evenodd;clip-rule:evenodd;fill:#E39280;" d="M259.207,527.464c0,0,38.259-48.704,46.194-61.3       c0,0,27.557-11.048,41.141-24.795c10.103-10.225,28.768,17.367-18.464,48.255c0,0-6.533,16.038-10.498,41.074       C313.615,555.735,259.207,527.464,259.207,527.464z"/>
					<path style="fillRule:evenodd;clip-rule:evenodd;fill:#E39280;" d="M272.353,600.414c0,0,38.569-5.095,65.012-33.734       c0,0,19.606-29.746,45.029-26.838c25.423,2.907,23.992,16.603,20.763,21c-3.229,4.397-25.257,5.821-55.251,39.298       c-29.996,33.476-33.412,60.187-97.632,63.569C250.274,663.709,255.274,616.302,272.353,600.414z"/>
				</g>
			</g>
			<path style="fillRule:evenodd;clip-rule:evenodd;fill:#CD5F59;" d="M479.161,556.237c0,0,28.076-16.608,41.52-16.213     c13.445,0.395,3.435,37.583-4.85,41.521C507.546,585.482,472.946,570.054,479.161,556.237z"/>
		</g>
		<g>
			<g>
				
					<ellipse transform="matrix(0.7071 -0.7071 0.7071 0.7071 -16.9024 604.5671)" style="fillRule:evenodd;clip-rule:evenodd;fill:#6A9DBB;" cx="721.326" cy="322.687" rx="111.444" ry="111.444"/>
				<path style="fillRule:evenodd;clip-rule:evenodd;fill:#FFFFFF;" d="M692.76,384.424c0,0-26.373-87.258-10.32-93.707      c16.053-6.448,68.374-15.856,68.374-15.856l-1.604-10.509c-1.012-6.624,39.163,17.38,41.372,18.959      c0,0-29.246,25.67-32.636,26.793c-3.39,1.124-2.984-9.458-2.984-9.458s-48.006,8.878-48.559,14.366      c-0.552,5.488,11.952,65.027,11.952,65.027S691.417,390.749,692.76,384.424z"/>
				<path style="fillRule:evenodd;clip-rule:evenodd;fill:#FFFFFF;" d="M704.013,226.404c26.588-4.781,52.597,1.668,73.153,15.959      c20.556,14.29,35.662,36.424,40.443,63.011c4.781,26.587-1.669,52.597-15.959,73.152c-14.29,20.556-36.424,35.663-63.011,40.444      c-26.587,4.78-52.596-1.669-73.152-15.96c-20.557-14.29-35.662-36.424-40.443-63.011c-4.781-26.587,1.668-52.596,15.959-73.152      C655.293,246.29,677.426,231.184,704.013,226.404L704.013,226.404z M774.524,246.162      c-19.583-13.614-44.362-19.757-69.692-15.203c-50.659,9.109-84.342,57.562-75.233,108.221      c4.555,25.33,18.945,46.416,38.529,60.03c19.584,13.614,44.362,19.758,69.692,15.203c50.66-9.109,84.343-57.561,75.234-108.221      C808.499,280.863,794.108,259.777,774.524,246.162z"/>
			</g>
			<g>
				<path style="fillRule:evenodd;clip-rule:evenodd;fill:#EDBE2D;" d="M223.766,296.291l49.144,134.666      c5.333,14.613-2.261,30.933-16.875,36.266l-134.666,49.144c-14.614,5.333-30.934-2.26-36.266-16.874L35.96,364.827      c-5.333-14.613,2.26-30.934,16.874-36.267l134.666-49.143C202.113,274.084,218.433,281.678,223.766,296.291z"/>
				<g>
					<path style="fillRule:evenodd;clip-rule:evenodd;fill:#383046;" d="M123.573,471.877c0,0,1.991-17.971,20.96-9.773       c14.052,6.073,26.75-0.66,33.012-17.847c6.261-17.188-17.408-27.087-32.388-32.728c-14.979-5.64-14.337-18.334-6.983-20.681       c8.193-2.615,29.687,7.172,35.99-4.84c6.301-12.013,7.186-13.913,7.186-13.913l13.6,6.328l-4.656-52.693l-41.889,29.384       l13.849,6.444c0,0-1.756,10.856-8.639,10.478c-6.883-0.378-32.1-8.172-41.157,14.733       c-9.057,22.906,14.853,35.283,21.059,37.563c18.32,6.728,23.526,12.439,20.832,18.347c-1.577,3.46-7.383,4.823-13.307,1.987       c-17.887-8.565-26.592-4.156-35.644,19.257L123.573,471.877z"/>
				</g>
				<path style="fillRule:evenodd;clip-rule:evenodd;fill:#383046;" d="M214.378,310.049l42.49,116.431      c4.61,12.636-1.954,26.745-14.589,31.356l-116.432,42.489c-12.635,4.612-26.745-1.953-31.356-14.589l-42.49-116.432      c-4.61-12.636,1.955-26.745,14.589-31.356l116.432-42.489C195.658,290.849,209.767,297.413,214.378,310.049L214.378,310.049z       M211.687,314.224c-4.43-12.139-17.987-18.446-30.126-14.017l-111.86,40.821c-12.139,4.43-18.447,17.986-14.017,30.125      l40.821,111.86c4.43,12.139,17.986,18.446,30.125,14.017l111.86-40.821c12.139-4.43,18.447-17.986,14.017-30.126      L211.687,314.224z"/>
			</g>
			<g>
				<path style="fillRule:evenodd;clip-rule:evenodd;fill:#CD5F59;" d="M490.35,968.343L384.81,985.028      c-7.477,1.182-14.481-1.509-19.243-7.393l-67.221-83.058c-4.762-5.884-5.933-13.296-3.218-20.362l38.32-99.744      c2.715-7.065,8.548-11.786,16.025-12.968l105.54-16.686c7.476-1.182,14.482,1.51,19.243,7.393l67.221,83.058      c4.762,5.884,5.933,13.295,3.218,20.361l-38.32,99.744C503.659,962.439,497.827,967.16,490.35,968.343z"/>
				<path style="fillRule:evenodd;clip-rule:evenodd;fill:#FFFFFF;" d="M365.509,912.159c-5.585,0.883-10.059-0.038-13.422-2.761      c-3.364-2.723-5.516-7.052-6.453-12.985l-0.662-4.188l10.889-1.722l0.794,5.026c0.75,4.747,3.115,6.805,7.094,6.177      c1.955-0.31,3.347-1.12,4.177-2.432c0.83-1.311,1.041-3.258,0.633-5.841c-0.486-3.071-1.611-5.665-3.377-7.783      c-1.766-2.118-4.793-4.52-9.081-7.204c-5.408-3.438-9.323-6.7-11.743-9.788c-2.42-3.087-3.966-6.761-4.64-11.018      c-0.916-5.794-0.159-10.51,2.27-14.15c2.43-3.64,6.437-5.9,12.021-6.784c5.514-0.872,9.936,0.057,13.265,2.786      c3.329,2.729,5.462,7.06,6.401,12.993l0.48,3.036l-10.89,1.722l-0.596-3.769c-0.397-2.513-1.175-4.268-2.335-5.265      c-1.159-0.997-2.681-1.346-4.566-1.049c-3.839,0.607-5.389,3.249-4.65,7.925c0.419,2.653,1.527,5.018,3.322,7.095      c1.795,2.077,4.837,4.458,9.125,7.143c5.479,3.426,9.396,6.707,11.751,9.84c2.356,3.133,3.898,7.003,4.626,11.61      c0.949,6.003,0.194,10.844-2.265,14.525C375.219,908.978,371.162,911.265,365.509,912.159L365.509,912.159z M388.393,843.075      l9.932,62.823l11.517-1.821l-9.932-62.823l12.041-1.903l-1.655-10.471l-35.599,5.628l1.655,10.471L388.393,843.075      L388.393,843.075z M443.827,899.777c-5.654,0.894-10.235-0.028-13.745-2.764c-3.509-2.736-5.727-7.037-6.654-12.9l-6.092-38.531      c-0.927-5.863-0.144-10.638,2.35-14.323c2.494-3.685,6.568-5.975,12.222-6.869c5.654-0.894,10.236,0.027,13.745,2.764      c3.509,2.736,5.727,7.036,6.654,12.9l6.091,38.531c0.927,5.864,0.144,10.638-2.35,14.323      C453.556,896.593,449.482,898.883,443.827,899.777L443.827,899.777z M442.172,889.307c3.979-0.629,5.588-3.352,4.827-8.168      l-6.324-39.998c-0.762-4.816-3.131-6.91-7.111-6.281c-3.979,0.63-5.587,3.352-4.826,8.168l6.324,39.997      C435.824,887.842,438.193,889.936,442.172,889.307L442.172,889.307z M457.31,821.447l11.586,73.293l11.518-1.82l-4.718-29.841      l5.445-0.86c5.724-0.905,9.774-3.12,12.151-6.643c2.376-3.524,3.095-8.253,2.157-14.186l-1.143-7.225      c-0.938-5.933-3.081-10.209-6.428-12.828c-3.347-2.619-7.883-3.475-13.607-2.571L457.31,821.447L457.31,821.447z       M479.485,851.748l-5.445,0.861l-3.559-22.512l5.445-0.86c1.885-0.298,3.381,0.002,4.489,0.9      c1.108,0.898,1.861,2.604,2.258,5.117l1.374,8.69c0.397,2.513,0.207,4.367-0.569,5.563      C482.701,850.703,481.37,851.45,479.485,851.748z"/>
				<path style="fillRule:evenodd;clip-rule:evenodd;fill:#FFFFFF;" d="M484.801,960.193l-97.225,15.371      c-6.887,1.089-13.34-1.39-17.727-6.81l-61.924-76.514c-4.387-5.42-5.466-12.248-2.965-18.757l35.301-91.885      c2.501-6.508,7.874-10.858,14.761-11.946l97.226-15.371c6.887-1.089,13.34,1.391,17.726,6.81l61.924,76.514      c4.386,5.421,5.465,12.248,2.965,18.757l-35.301,91.885C497.061,954.755,491.687,959.104,484.801,960.193L484.801,960.193z       M481.959,955.721c6.617-1.046,11.779-5.225,14.182-11.478l33.913-88.272c2.402-6.253,1.365-12.813-2.849-18.02l-59.49-73.506      c-4.214-5.207-10.413-7.589-17.03-6.542l-93.402,14.766c-6.617,1.046-11.779,5.224-14.182,11.477l-33.913,88.273      c-2.402,6.253-1.365,12.813,2.849,18.02l59.49,73.506c4.214,5.206,10.413,7.588,17.031,6.543L481.959,955.721z"/>
			</g>
		</g>
		<g>
			
				<ellipse transform="matrix(0.9869 -0.1612 0.1612 0.9869 -140.8303 111.8797)" style="fillRule:evenodd;clip-rule:evenodd;fill:#FFFFFF;" cx="619.008" cy="923.762" rx="20.658" ry="20.658"/>
			<path style="fillRule:evenodd;clip-rule:evenodd;fill:#FFFFFF;" d="M668.589,890.709c2.275,0,4.132-1.856,4.132-4.132     c0-2.276-1.856-4.132-4.132-4.132c-2.276,0-4.132,1.856-4.132,4.132C664.456,888.852,666.312,890.709,668.589,890.709z"/>
			<path style="fillRule:evenodd;clip-rule:evenodd;fill:#FFFFFF;" d="M862.799,775.021c6.247,0,11.341-5.095,11.341-11.342     c0-6.247-5.094-11.341-11.341-11.341c-6.247,0-11.342,5.094-11.342,11.341C851.457,769.926,856.552,775.021,862.799,775.021z"/>
			<path style="fillRule:evenodd;clip-rule:evenodd;fill:#FFFFFF;" d="M573.042,280.25c7.111,0,12.911-5.8,12.911-12.912     c0-7.111-5.8-12.911-12.911-12.911c-7.111,0-12.912,5.8-12.912,12.911C560.131,274.451,565.932,280.25,573.042,280.25z"/>
			<path style="fillRule:evenodd;clip-rule:evenodd;fill:#FFFFFF;" d="M449.091,280.25c1.422,0,2.582-1.16,2.582-2.583     c0-1.422-1.159-2.582-2.582-2.582s-2.582,1.16-2.582,2.582C446.509,279.091,447.669,280.25,449.091,280.25z"/>
			<path style="fillRule:evenodd;clip-rule:evenodd;fill:#FFFFFF;" d="M61.228,678.959c4.551,0,8.263-3.712,8.263-8.264     s-3.712-8.263-8.263-8.263s-8.264,3.712-8.264,8.263S56.677,678.959,61.228,678.959z"/>
		</g>
		
	</g>
</g>

</svg>