
<svg version="1.1" xmlns="http://www.w3.org/2000/svg" xmlns:xlink="http://www.w3.org/1999/xlink" x="0px" y="0px" viewBox="0 1000 3710 2500" style="enable-background:new 0 0 3710 3710;" xml:space="preserve">
<g>
<g xmlns="http://www.w3.org/2000/svg">
			
				<linearGradient id="SVGID_00000080928358822284567230000003574633874470841482_" gradientUnits="userSpaceOnUse" x1="2427.1577" y1="1400.514" x2="1889.5585" y2="3274.6416">
				<stop offset="0" style="stop-color:#d3e3ed"/>
				<stop offset="1" style="stop-color:#1f6087"/>
			</linearGradient>
			<path style="fill:url(#SVGID_00000080928358822284567230000003574633874470841482_);" d="M3175.556,2604.314H1322.504     c-14.911,0-26.999-12.088-26.999-26.999v-1111.66c0-14.911,12.088-26.999,26.999-26.999h1853.052     c14.911,0,26.999,12.088,26.999,26.999v1111.66C3202.555,2592.227,3190.467,2604.314,3175.556,2604.314z"/>
			
				<linearGradient id="SVGID_00000178195326789198453220000005334574430612486549_" gradientUnits="userSpaceOnUse" x1="2216.8706" y1="757.9587" x2="2264.5291" y2="1934.7687">
				<stop offset="0" style="stop-color:#d3e3ed"/>
				<stop offset="1" style="stop-color:#1f6087"/>
			</linearGradient>
			<path style="fill:url(#SVGID_00000178195326789198453220000005334574430612486549_);" d="M3205.047,1613.022v-97.226     c0-42.603-37.029-78.974-79.632-78.974H1372.644c-42.602,0-78.691,36.372-78.691,78.974v97.226H3205.047z"/>
			<path style="opacity:0.4;fill:#FFFFFF;" d="M3091.022,2120.041h-368.335c-9.528,0-17.251-7.724-17.251-17.251v-368.335     c0-9.528,7.724-17.251,17.251-17.251h368.335c9.528,0,17.251,7.724,17.251,17.251v368.335     C3108.274,2112.317,3100.55,2120.041,3091.022,2120.041z"/>
			<g>
				<path style="fill:#FFFFFF;" d="M2976.906,1832.241c0,38.544-31.246,80.154-69.789,80.154c-38.544,0-69.79-41.611-69.79-80.154      c0-38.544,31.246-65.888,69.79-65.888C2945.661,1766.353,2976.906,1793.698,2976.906,1832.241z"/>
				<path style="fill:#FFFFFF;" d="M2820.508,2060.792h170.368c17.934,0,33.812-11.591,39.277-28.672l9.168-28.654      c6.712-20.979-4.201-43.694-24.889-51.258c-69.334-25.35-141.027-22.098-214.469,2.339      c-20.574,6.846-31.992,28.853-26.314,49.781l7.059,26.022C2785.583,2048.319,2801.891,2060.792,2820.508,2060.792z"/>
			</g>
			<path style="opacity:0.4;fill:#FFFFFF;" d="M2494.641,1802.925H1399.163c-5.178,0-9.376-4.198-9.376-9.377l0-66.957     c0-5.178,4.198-9.376,9.377-9.376h1095.478c5.178,0,9.376,4.198,9.376,9.376v66.957     C2504.018,1798.727,2499.82,1802.925,2494.641,1802.925z"/>
			<path style="opacity:0.4;fill:#FFFFFF;" d="M2491.207,2445.75H1405.474c-7.87,0-14.249-6.38-14.249-14.249v-117.208     c0-7.87,6.38-14.249,14.249-14.249h1085.733c7.87,0,14.249,6.38,14.249,14.249v117.208     C2505.456,2439.371,2499.076,2445.75,2491.207,2445.75z"/>
			<path style="opacity:0.4;fill:#FFFFFF;" d="M1891.812,1970.06h-486.936c-5.179,0-9.377-4.198-9.377-9.377v-66.957     c0-5.178,4.198-9.376,9.377-9.376h486.936c5.178,0,9.376,4.198,9.376,9.376v66.957     C1901.188,1965.861,1896.99,1970.06,1891.812,1970.06z"/>
			<path style="opacity:0.4;fill:#FFFFFF;" d="M1893.244,2137.183h-486.937c-5.178,0-9.376-4.198-9.376-9.377v-66.957     c0-5.179,4.198-9.377,9.376-9.377h486.937c5.178,0,9.376,4.198,9.376,9.377v66.957     C1902.62,2132.985,1898.422,2137.183,1893.244,2137.183z"/>
			<path style="opacity:0.4;fill:#FFFFFF;" d="M2478.949,1970.06h-486.937c-5.179,0-9.377-4.198-9.377-9.377v-66.957     c0-5.178,4.198-9.376,9.377-9.376h486.937c5.178,0,9.376,4.198,9.376,9.376v66.957     C2488.325,1965.861,2484.127,1970.06,2478.949,1970.06z"/>
		</g>
		<g xmlns="http://www.w3.org/2000/svg">
			<g>
				<g>
					<g>
						
							<linearGradient id="SVGID_00000071548022640965917580000012531308712777193909_" gradientUnits="userSpaceOnUse" x1="1237.8953" y1="1560.8511" x2="1278.2432" y2="2838.5635">
							<stop offset="0" style="stop-color:#2B3582"/>
							<stop offset="1" style="stop-color:#150E42"/>
						</linearGradient>
						<path style="fill:url(#SVGID_00000071548022640965917580000012531308712777193909_);" d="M1395.607,2891.124        c0-50.887-41.252-92.139-92.139-92.139h-39.36c-50.887,0-92.14,41.252-92.14,92.139v246.056        c0,50.887,41.252,92.139,92.14,92.139h39.36c50.887,0,92.139-41.252,92.139-92.139V2891.124z"/>
						
							<linearGradient id="SVGID_00000102505083254401011650000002741688564347798656_" gradientUnits="userSpaceOnUse" x1="2503.9214" y1="1520.9656" x2="2544.2693" y2="2798.6777">
							<stop offset="0" style="stop-color:#2B3582"/>
							<stop offset="1" style="stop-color:#150E42"/>
						</linearGradient>
						<path style="fill:url(#SVGID_00000102505083254401011650000002741688564347798656_);" d="M2662.893,2891.124        c0-50.887-41.252-92.139-92.139-92.139h-39.36c-50.887,0-92.139,41.252-92.139,92.139v246.056        c0,50.887,41.252,92.139,92.139,92.139h39.36c50.887,0,92.139-41.252,92.139-92.139V2891.124z"/>
					</g>
					<g>
						
							<linearGradient id="SVGID_00000034795066734806193780000011491743392654335413_" gradientUnits="userSpaceOnUse" x1="1127.9186" y1="2437.2483" x2="1353.5988" y2="2437.2483">
							<stop offset="0" style="stop-color:#80d971"/>
							<stop offset="1" style="stop-color:#3c7532"/>
						</linearGradient>
						<path style="fill:url(#SVGID_00000034795066734806193780000011491743392654335413_);" d="M1293.615,2432.068        c-2.761-0.612-6.438-3.06-6.438-5.888v-18.935c0-18.246-8.566-34.935-24.859-43.148        c-21.019-10.595-44.881-10.964-66.207-1.002l-38.391,18.329c-18.697,8.734-29.801,27.505-29.801,48.141v14.438        c0,26.575,19.217,49.063,45.549,52.649l161.138,21.967l18.993-73.484L1293.615,2432.068z"/>
						
							<linearGradient id="SVGID_00000041269951552804070710000005687703362024220544_" gradientUnits="userSpaceOnUse" x1="-2096.7332" y1="2437.2483" x2="-1871.1876" y2="2437.2483" gradientTransform="matrix(-1 0 0 1 620.375 0)">
							<stop offset="0" style="stop-color:#80d971"/>
							<stop offset="1" style="stop-color:#3c7532"/>
						</linearGradient>
						<path style="fill:url(#SVGID_00000041269951552804070710000005687703362024220544_);" d="M2549.487,2432.068        c2.761-0.612,1.587-3.06,1.587-5.888v-18.935c0-18.246,13.418-34.935,29.711-43.148c21.019-10.595,47.307-10.964,68.633-1.002        l38.14,18.329c18.697,8.734,29.551,27.505,29.551,48.141v14.438c0,26.575-17.754,49.063-44.085,52.649l-160.407,21.967        l-21.053-73.484L2549.487,2432.068z"/>
					</g>
					
						<linearGradient id="SVGID_00000155139562788114046470000016513652764915349947_" gradientUnits="userSpaceOnUse" x1="1925.4935" y1="2367.0911" x2="1914.6912" y2="3674.2004">
						<stop offset="0" style="stop-color:#80d971"/>
						<stop offset="1" style="stop-color:#3c7532"/>
					</linearGradient>
					<path style="fill:url(#SVGID_00000155139562788114046470000016513652764915349947_);" d="M2670.506,2594.537       c-23.359-78.845-144.049-153.832-144.049-153.832s-101.224-312.636-210.234-312.636c-87.532,0-297.723,0-377.164,0       c0,0-11.653,0-31.146,0c-79.525,0-290.092,0-377.643,0c-109.01,0-210.234,312.636-210.234,312.636       s-120.69,73.95-144.049,152.795c-17.077,57.642,19.947,278.447,41.095,392.85c7.456,40.335,45.516,70.158,89.962,70.158       h600.869h31.146h600.39c44.446,0,82.506-29.305,89.962-69.639C2650.559,2872.465,2687.583,2652.179,2670.506,2594.537z"/>
					
						<linearGradient id="SVGID_00000123438873217343693030000014968307173338316446_" gradientUnits="userSpaceOnUse" x1="1931.8727" y1="2070.6987" x2="1918.5968" y2="3418.1306">
						<stop offset="0" style="stop-color:#80d971"/>
						<stop offset="1" style="stop-color:#3c7532"/>
					</linearGradient>
					<path style="fill:url(#SVGID_00000123438873217343693030000014968307173338316446_);" d="M2655.344,2926.521       c-6.793-7.771-17.153-12.329-28.116-12.329h-1407.96c-10.896,0-21.199,4.502-27.996,12.192       c-6.797,7.69-9.35,17.767-6.935,27.361l23.041,89.646c3.707,14.728,18.206,23.281,34.931,23.281h1360.728       c16.581,0,30.995-8.371,34.844-22.934l24.192-90.606C2664.616,2943.503,2662.137,2934.292,2655.344,2926.521z"/>
					<g>
						
							<linearGradient id="SVGID_00000039823346826207510500000006537784227100341643_" gradientUnits="userSpaceOnUse" x1="1277.3999" y1="3421.6587" x2="1438.8662" y2="2385.5881">
							<stop offset="0" style="stop-color:#80d971"/>
							<stop offset="1" style="stop-color:#3c7532"/>
						</linearGradient>
						<path style="fill:url(#SVGID_00000039823346826207510500000006537784227100341643_);" d="M1542.981,2783.682        c0,0-35.039-105.117-79.162-114.201c-44.123-9.084-230.997-48.016-234.891-15.573        c-3.893,32.443-41.528,144.049,70.078,154.431C1410.612,2818.721,1560.96,2827.263,1542.981,2783.682z"/>
						
							<linearGradient id="SVGID_00000077325330612918506720000015268071611329970868_" gradientUnits="userSpaceOnUse" x1="2617.1428" y1="1961.6017" x2="2368.2158" y2="3266.7825">
							<stop offset="0" style="stop-color:#80d971"/>
							<stop offset="1" style="stop-color:#3c7532"/>
						</linearGradient>
						<path style="fill:url(#SVGID_00000077325330612918506720000015268071611329970868_);" d="M2303.512,2783.682        c0,0,35.039-105.117,79.162-114.201c44.123-9.084,230.998-48.016,234.891-15.573c3.894,32.443,41.528,144.049-70.078,154.431        C2435.882,2818.721,2285.534,2827.263,2303.512,2783.682z"/>
					</g>
					
						<linearGradient id="SVGID_00000068679525725606841630000017770356370611234750_" gradientUnits="userSpaceOnUse" x1="1893.5198" y1="1840.9757" x2="1940.9153" y2="3215.4707">
						<stop offset="0" style="stop-color:#80d971"/>
						<stop offset="1" style="stop-color:#3c7532"/>
					</linearGradient>
					<path style="fill:url(#SVGID_00000068679525725606841630000017770356370611234750_);" d="M2278.346,2691.677       c-3.625-5.585-9.831-11.289-16.489-11.289h-677.221c-6.897,0-13.289,5.947-16.844,11.857s-3.753,14.417-0.522,20.509       l38.103,72.623c14.139,26.661,41.849,44.104,72.027,44.104h497.597c32.182,0,61.353-19.12,74.46-48.512l30.352-69.323       C2282.522,2705.564,2281.971,2697.263,2278.346,2691.677z"/>
					<g>
						
							<linearGradient id="SVGID_00000173119228501215733460000001720987106765295523_" gradientUnits="userSpaceOnUse" x1="2205.8271" y1="1261.1294" x2="1550.7737" y2="4029.9128">
							<stop offset="0" style="stop-color:#80d971"/>
							<stop offset="0.7907" style="stop-color:#9dc1e3"/>
							<stop offset="1" style="stop-color:#3c7532"/>
						</linearGradient>
						<path style="fill:url(#SVGID_00000173119228501215733460000001720987106765295523_);" d="M2462.756,2468.846        c-4.4,6.697-11.874,11.623-19.933,11.623H1403.645c-8.137,0-15.729-5.044-20.089-11.935        c-4.361-6.891-4.906-15.973-1.402-23.37c23.593-49.717,67.859-141.972,92.659-193.479c1.129-2.336,2.375-5.262,3.777-7.403        c11.991-19.038,33.053-31.502,55.906-31.502h785.846c23.087,0,44.227,12.589,56.179,31.782        c1.674,2.725,3.193,5.866,4.478,8.825l83.626,192.33C2467.856,2453.074,2467.156,2462.111,2462.756,2468.846z"/>
						<path style="fill:#FFFFFF;" d="M2376.521,2244.562c-55.05,10.862-216.813,38.219-460.801,38.219        c-246.012,0-390.373-28.051-437.13-38.757c11.991-19.038,33.053-31.243,55.906-31.243h785.846        C2343.429,2212.78,2364.569,2225.369,2376.521,2244.562z"/>
					</g>
					<g>
						<g>
							<path style="fill:#FFFFFF;" d="M1526.235,2640.687c-0.962,0-1.924-0.353-2.677-1.064l-134.694-127.463         c-1.56-1.479-1.629-3.943-0.152-5.506c1.483-1.56,3.947-1.625,5.505-0.152l134.695,127.463         c1.56,1.479,1.629,3.942,0.152,5.505C1528.298,2640.278,1527.267,2640.687,1526.235,2640.687z"/>
						</g>
						<g>
							<path style="fill:#FFFFFF;" d="M2310.341,2640.687c-1.032,0-2.063-0.408-2.828-1.216c-1.478-1.563-1.409-4.027,0.152-5.505         l134.694-127.463c1.563-1.473,4.028-1.408,5.505,0.152c1.477,1.563,1.408,4.027-0.152,5.506l-134.694,127.463         C2312.265,2640.333,2311.303,2640.687,2310.341,2640.687z"/>
						</g>
					</g>
				</g>
			</g>
		</g>
</g>
</svg>
