<svg xmlns="http://www.w3.org/2000/svg" xmlns:xlink="http://www.w3.org/1999/xlink" version="1.1" x="0px" y="0px" viewBox="0 300 1720 1000" xml:space="preserve">

<g id="OBJECTS">
	
	
	<g>
		<g>
		<g xmlns="http://www.w3.org/2000/svg">
		<path style="fill-rule:evenodd;clip-rule:evenodd;fill:#e8eded;" d="M1920,727.969V1080H0v-118.11    c36.572-8.555,76.502-23.036,118.655-46.238c186.117-102.444,267.864,42.225,477.01,31.72    c209.146-10.505,271.342-217.077,477.557-112.383c206.215,104.695,266.655,158.789,412.512,76.222    C1617.875,836.408,1713.405,676.857,1920,727.969z"/>
	</g>
		</g>
		<g>
			<path style="fill-rule:evenodd;clip-rule:evenodd;fill:#383046;" d="M1532.889,995.428l-814.073-13.902L732.252,850.8     c0,0,2.681-55.446,48.291-53.657c45.609,1.788,263.815,0.893,283.489,1.788c19.674,0.895,449.825,0,449.825,0     C1560.615,852.008,1596.233,942.712,1532.889,995.428z"/>
			<path style="fill-rule:evenodd;clip-rule:evenodd;fill:#383046;" d="M1459.7,832.516c40.99,0,74.222,46.72,74.222,104.351     c0,57.631-33.232,104.351-74.222,104.351h-86.289c-40.991,0-74.222-46.72-74.222-104.351c0-57.631,33.231-104.351,74.222-104.351     H1459.7z"/>
			<ellipse style="fill-rule:evenodd;clip-rule:evenodd;fill:#FFFFFF;" cx="1460.742" cy="936.203" rx="53.229" ry="74.835"/>
			<ellipse style="fill-rule:evenodd;clip-rule:evenodd;fill:#383046;" cx="1460.741" cy="936.204" rx="23.527" ry="33.076"/>
			<path style="fill-rule:evenodd;clip-rule:evenodd;fill:#383046;" d="M887.799,832.516c40.989,0,74.221,46.72,74.221,104.351     c0,57.631-33.232,104.351-74.221,104.351H801.51c-40.991,0-74.221-46.72-74.221-104.351c0-57.631,33.231-104.351,74.221-104.351     H887.799z"/>
			<path style="fill-rule:evenodd;clip-rule:evenodd;fill:#383046;" d="M1050.362,845.608c32.414,0,59.971,27.224,70.085,65.167     c22.348,4.191,40.528,17.486,42.13,36.596c4.444,53.018-25.34,85.741-42.233,91.126c-13.28,4.233-53.371,2.499-69.916,1.564     l-0.067,0c-2.393,0-4.759-0.154-7.094-0.444l-0.104-0.007l-0.001-0.005c-37.612-4.744-67.023-46.256-67.023-96.771     C976.141,889.139,1009.373,845.608,1050.362,845.608z"/>
			<path style="fill-rule:evenodd;clip-rule:evenodd;fill:#383046;" d="M483.449,845.608c32.414,0,59.971,27.224,70.085,65.167     c22.348,4.191,40.528,17.486,42.131,36.596c4.445,53.018-25.34,85.741-42.233,91.126c-13.28,4.233-53.371,2.499-69.916,1.564     l-0.067,0c-2.393,0-4.759-0.154-7.094-0.444l-0.104-0.007l-0.001-0.005c-37.612-4.744-67.023-46.256-67.023-96.771     C409.228,889.139,442.46,845.608,483.449,845.608z"/>
			<path style="fill-rule:evenodd;clip-rule:evenodd;fill:#CD5F59;" d="M1367.562,716.004c0,0-110.266-191.659-326.816-191.523     c-216.55,0.139-370.515-2.286-429.419,31.915c-58.903,34.201-182.408,129.207-182.408,129.207s-75.154-8.996-83.846,22.511     c-8.693,31.507-16.296,95.603-16.296,95.603s-29.333-1.085-35.852,32.593c-6.518,33.678-16.292,128.192,24.989,134.71     c17.314,2.732,240.467,7.569,493.731,12.262c-4.393-14.224-6.833-29.92-6.833-46.415c0-64.438,37.156-116.676,82.988-116.676     c45.832,0,82.988,52.238,82.988,116.676c0,17.559-2.767,34.212-7.708,49.15c152.915,2.694,304.291,5.182,417.666,7.004     c-5.807-16.237-9.08-34.571-9.08-53.983c0-66.458,38.323-120.34,85.595-120.34c47.273,0,85.595,53.882,85.595,120.34     c0,20.376-3.605,39.568-9.966,56.391l37.631,0.579c0,0,25.917-1.895,28.401-27.982c2.484-26.088-4.969-121.75-4.969-121.75     S1557.922,746.886,1367.562,716.004z"/>
			<path style="fill-rule:evenodd;clip-rule:evenodd;fill:#B44556;" d="M937.5,524.518c-173.801-3.52-292.452,11.43-326.173,31.878     c-33.721,20.448-182.408,129.207-182.408,129.207s-75.154-8.995-83.846,22.511c-8.692,31.507-16.297,95.603-16.297,95.603     s-29.333-1.086-35.851,32.592c-6.519,33.678-16.293,128.192,24.989,134.711c15.42,2.433,194.118,6.536,411.945,10.72     c-2.37-36.523-5.837-96.173-4.282-111.31c2.283-22.229,5.988-37.308,25.656-38.611c0,0,0.391-135.432,27.957-139.06     c0,0,3.804-114.738,147.52-147.864C926.709,544.893,928.753,533.451,937.5,524.518z"/>
			<path style="fill-rule:evenodd;clip-rule:evenodd;fill:#FFFFFF;" d="M1334.584,716.077c0,0-65.734-130.072-244.485-159.282     c-4.84,35.895-9.533,80.418-13.236,118.636c-0.752,7.755,1.467,14.708,6.57,20.597c5.104,5.888,11.672,9.07,19.456,9.427     L1334.584,716.077L1334.584,716.077z M1071.462,554.176c-8.553-1.013-17.329-1.816-26.37-2.349     c-212.854-12.549-213.463,141.19-213.463,141.19l204.142,9.361c14.753,0.676,27.397-10.469,28.577-25.191     C1067.427,638.745,1069.813,592.208,1071.462,554.176z"/>
			<path style="fill-rule:evenodd;clip-rule:evenodd;fill:#F0D7C9;" d="M779.189,692.758     c9.834-72.419,85.159-130.861,147.52-147.866c0,0-197.675-13.696-279.69,13.365c-82.014,27.061-175.743,127.431-175.743,127.431     L779.189,692.758z"/>
			<path style="fill-rule:evenodd;clip-rule:evenodd;fill:#FFFFFF;" d="M697.724,547.673c-9.015,1.179-17.622,2.563-25.679,4.174     c-80.155,41.575-130.529,92.498-161.4,134.745l71.292,1.637C606.295,620.125,654.431,575.554,697.724,547.673z"/>
			<path style="fill-rule:evenodd;clip-rule:evenodd;fill:#FFFFFF;" d="M888.841,1011.038c29.318,0,53.23-33.617,53.23-74.835     c0-41.218-23.912-74.836-53.23-74.836c-29.318,0-53.229,33.617-53.229,74.836C835.612,977.421,859.523,1011.038,888.841,1011.038     z"/>
			<ellipse style="fill-rule:evenodd;clip-rule:evenodd;fill:#383046;" cx="888.84" cy="936.204" rx="23.527" ry="33.076"/>
			<path style="fill-rule:evenodd;clip-rule:evenodd;fill:#CD5F59;" d="M580.906,774.725c0,0,94.639-15.855,106.305-11.527     c11.666,4.328,33.684,42.203,22.796,47.198c-10.888,4.996-134.898,3.33-136.943-2.848     C571.019,801.371,570.508,778.968,580.906,774.725z"/>
			<path style="fill-rule:evenodd;clip-rule:evenodd;fill:#CD5F59;" d="M430.515,776.97c0,0-68.487-17.969-94.624-23.502     c-4.854,28.417-7.116,50.248-7.116,50.248c8.58,4.457,103.954,4.702,105.565-0.427C435.952,798.16,438.71,780.781,430.515,776.97     z"/>
			<path style="fill-rule:evenodd;clip-rule:evenodd;fill:#B44556;" d="M1401.849,799.129l-599.795-24.664     C802.054,774.465,1098.352,733.77,1401.849,799.129z"/>
			<path style="fill-rule:evenodd;clip-rule:evenodd;fill:#CD5F59;" d="M674.014,828.528c0,0-336.434-8.052-349.855-7.157     C310.739,822.265,533.689,853.877,674.014,828.528z"/>
			<path style="fill-rule:evenodd;clip-rule:evenodd;fill:#CD5F59;" d="M404.427,908.93c0,0,164.751-7.905,178.565,4.374     c13.813,12.279,11.766,41.439-9.209,42.975c-20.976,1.536-169.342,4.603-173.947-4.093     C395.232,943.489,396.323,909.717,404.427,908.93z"/>
			<path style="fill-rule:evenodd;clip-rule:evenodd;fill:#B44556;" d="M996.201,964.695l364.737,6.09     C1360.938,970.786,1174.848,933.567,996.201,964.695z"/>
		</g>
		<g xmlns="http://www.w3.org/2000/svg">
		<path style="fill-rule:evenodd;clip-rule:evenodd;fill:#383046;" d="M1920,1025.525V1080H0v-63.63    C513.964,1009.115,1537.064,999.569,1920,1025.525z"/>
		<g>
			<path style="fill-rule:evenodd;clip-rule:evenodd;fill:#383046;" d="M1532.889,995.428l-814.073-13.902L732.252,850.8     c0,0,2.681-55.446,48.291-53.657c45.609,1.788,263.815,0.893,283.489,1.788c19.674,0.895,449.825,0,449.825,0     C1560.615,852.008,1596.233,942.712,1532.889,995.428z"/>
			<path style="fill-rule:evenodd;clip-rule:evenodd;fill:#383046;" d="M1459.7,832.516c40.99,0,74.222,46.72,74.222,104.351     c0,57.631-33.232,104.351-74.222,104.351h-86.289c-40.991,0-74.222-46.72-74.222-104.351c0-57.631,33.231-104.351,74.222-104.351     H1459.7z"/>
			<ellipse style="fill-rule:evenodd;clip-rule:evenodd;fill:#FFFFFF;" cx="1460.742" cy="936.203" rx="53.229" ry="74.835"/>
			<ellipse style="fill-rule:evenodd;clip-rule:evenodd;fill:#383046;" cx="1460.741" cy="936.204" rx="23.527" ry="33.076"/>
			<path style="fill-rule:evenodd;clip-rule:evenodd;fill:#383046;" d="M887.799,832.516c40.989,0,74.221,46.72,74.221,104.351     c0,57.631-33.232,104.351-74.221,104.351H801.51c-40.991,0-74.221-46.72-74.221-104.351c0-57.631,33.231-104.351,74.221-104.351     H887.799z"/>
			<path style="fill-rule:evenodd;clip-rule:evenodd;fill:#383046;" d="M1050.362,845.608c32.414,0,59.971,27.224,70.085,65.167     c22.348,4.191,40.528,17.486,42.13,36.596c4.444,53.018-25.34,85.741-42.233,91.126c-13.28,4.233-53.371,2.499-69.916,1.564     l-0.067,0c-2.393,0-4.759-0.154-7.094-0.444l-0.104-0.007l-0.001-0.005c-37.612-4.744-67.023-46.256-67.023-96.771     C976.141,889.139,1009.373,845.608,1050.362,845.608z"/>
			<path style="fill-rule:evenodd;clip-rule:evenodd;fill:#383046;" d="M483.449,845.608c32.414,0,59.971,27.224,70.085,65.167     c22.348,4.191,40.528,17.486,42.131,36.596c4.445,53.018-25.34,85.741-42.233,91.126c-13.28,4.233-53.371,2.499-69.916,1.564     l-0.067,0c-2.393,0-4.759-0.154-7.094-0.444l-0.104-0.007l-0.001-0.005c-37.612-4.744-67.023-46.256-67.023-96.771     C409.228,889.139,442.46,845.608,483.449,845.608z"/>
			<path style="fill-rule:evenodd;clip-rule:evenodd;fill:#CD5F59;" d="M1367.562,716.004c0,0-110.266-191.659-326.816-191.523     c-216.55,0.139-370.515-2.286-429.419,31.915c-58.903,34.201-182.408,129.207-182.408,129.207s-75.154-8.996-83.846,22.511     c-8.693,31.507-16.296,95.603-16.296,95.603s-29.333-1.085-35.852,32.593c-6.518,33.678-16.292,128.192,24.989,134.71     c17.314,2.732,240.467,7.569,493.731,12.262c-4.393-14.224-6.833-29.92-6.833-46.415c0-64.438,37.156-116.676,82.988-116.676     c45.832,0,82.988,52.238,82.988,116.676c0,17.559-2.767,34.212-7.708,49.15c152.915,2.694,304.291,5.182,417.666,7.004     c-5.807-16.237-9.08-34.571-9.08-53.983c0-66.458,38.323-120.34,85.595-120.34c47.273,0,85.595,53.882,85.595,120.34     c0,20.376-3.605,39.568-9.966,56.391l37.631,0.579c0,0,25.917-1.895,28.401-27.982c2.484-26.088-4.969-121.75-4.969-121.75     S1557.922,746.886,1367.562,716.004z"/>
			<path style="fill-rule:evenodd;clip-rule:evenodd;fill:#B44556;" d="M937.5,524.518c-173.801-3.52-292.452,11.43-326.173,31.878     c-33.721,20.448-182.408,129.207-182.408,129.207s-75.154-8.995-83.846,22.511c-8.692,31.507-16.297,95.603-16.297,95.603     s-29.333-1.086-35.851,32.592c-6.519,33.678-16.293,128.192,24.989,134.711c15.42,2.433,194.118,6.536,411.945,10.72     c-2.37-36.523-5.837-96.173-4.282-111.31c2.283-22.229,5.988-37.308,25.656-38.611c0,0,0.391-135.432,27.957-139.06     c0,0,3.804-114.738,147.52-147.864C926.709,544.893,928.753,533.451,937.5,524.518z"/>
			<path style="fill-rule:evenodd;clip-rule:evenodd;fill:#FFFFFF;" d="M1334.584,716.077c0,0-65.734-130.072-244.485-159.282     c-4.84,35.895-9.533,80.418-13.236,118.636c-0.752,7.755,1.467,14.708,6.57,20.597c5.104,5.888,11.672,9.07,19.456,9.427     L1334.584,716.077L1334.584,716.077z M1071.462,554.176c-8.553-1.013-17.329-1.816-26.37-2.349     c-212.854-12.549-213.463,141.19-213.463,141.19l204.142,9.361c14.753,0.676,27.397-10.469,28.577-25.191     C1067.427,638.745,1069.813,592.208,1071.462,554.176z"/>
			<path style="fill-rule:evenodd;clip-rule:evenodd;fill:#F0D7C9;" d="M779.189,692.758     c9.834-72.419,85.159-130.861,147.52-147.866c0,0-197.675-13.696-279.69,13.365c-82.014,27.061-175.743,127.431-175.743,127.431     L779.189,692.758z"/>
			<path style="fill-rule:evenodd;clip-rule:evenodd;fill:#FFFFFF;" d="M697.724,547.673c-9.015,1.179-17.622,2.563-25.679,4.174     c-80.155,41.575-130.529,92.498-161.4,134.745l71.292,1.637C606.295,620.125,654.431,575.554,697.724,547.673z"/>
			<path style="fill-rule:evenodd;clip-rule:evenodd;fill:#FFFFFF;" d="M888.841,1011.038c29.318,0,53.23-33.617,53.23-74.835     c0-41.218-23.912-74.836-53.23-74.836c-29.318,0-53.229,33.617-53.229,74.836C835.612,977.421,859.523,1011.038,888.841,1011.038     z"/>
			<ellipse style="fill-rule:evenodd;clip-rule:evenodd;fill:#383046;" cx="888.84" cy="936.204" rx="23.527" ry="33.076"/>
			<path style="fill-rule:evenodd;clip-rule:evenodd;fill:#CD5F59;" d="M580.906,774.725c0,0,94.639-15.855,106.305-11.527     c11.666,4.328,33.684,42.203,22.796,47.198c-10.888,4.996-134.898,3.33-136.943-2.848     C571.019,801.371,570.508,778.968,580.906,774.725z"/>
			<path style="fill-rule:evenodd;clip-rule:evenodd;fill:#CD5F59;" d="M430.515,776.97c0,0-68.487-17.969-94.624-23.502     c-4.854,28.417-7.116,50.248-7.116,50.248c8.58,4.457,103.954,4.702,105.565-0.427C435.952,798.16,438.71,780.781,430.515,776.97     z"/>
			<path style="fill-rule:evenodd;clip-rule:evenodd;fill:#B44556;" d="M1401.849,799.129l-599.795-24.664     C802.054,774.465,1098.352,733.77,1401.849,799.129z"/>
			<path style="fill-rule:evenodd;clip-rule:evenodd;fill:#CD5F59;" d="M674.014,828.528c0,0-336.434-8.052-349.855-7.157     C310.739,822.265,533.689,853.877,674.014,828.528z"/>
			<path style="fill-rule:evenodd;clip-rule:evenodd;fill:#CD5F59;" d="M404.427,908.93c0,0,164.751-7.905,178.565,4.374     c13.813,12.279,11.766,41.439-9.209,42.975c-20.976,1.536-169.342,4.603-173.947-4.093     C395.232,943.489,396.323,909.717,404.427,908.93z"/>
			<path style="fill-rule:evenodd;clip-rule:evenodd;fill:#B44556;" d="M996.201,964.695l364.737,6.09     C1360.938,970.786,1174.848,933.567,996.201,964.695z"/>
		</g>
	</g>
	</g>
</g>

</svg>