<svg xmlns="http://www.w3.org/2000/svg" xmlns:xlink="http://www.w3.org/1999/xlink" version="1.1" x="0px" y="0px" viewBox="1250 230 800 450" xml:space="preserve">

<g id="OBJECTS">
	
	
<g xmlns="http://www.w3.org/2000/svg">
		<g>
			
				<ellipse transform="matrix(0.7071 -0.7071 0.7071 0.7071 179.7747 1199.0305)" style="fill-rule:evenodd;clip-rule:evenodd;fill:#6A9DBB;" cx="1537.245" cy="382.508" rx="135.486" ry="135.486"/>
			<path style="fill-rule:evenodd;clip-rule:evenodd;fill:#FFFFFF;" d="M1494.178,453.11c0,0-19.748-109.049,0.536-114.609     c20.284-5.561,84.783-9.664,84.783-9.664l-0.48-12.915c-0.303-8.142,44.89,26.424,47.339,28.638c0,0-38.884,26.946-43.135,27.832     c-4.251,0.887-2.291-11.837-2.291-11.837s-59.213,4.062-60.641,10.613c-1.429,6.552,5.413,80.197,5.413,80.197     S1491.679,460.564,1494.178,453.11z"/>
			<path style="fill-rule:evenodd;clip-rule:evenodd;fill:#FFFFFF;" d="M1529.693,263.816c32.775-2.085,63.295,9.312,86.139,29.424     c22.846,20.112,38.02,48.94,40.105,81.715c2.085,32.775-9.313,63.294-29.425,86.139c-20.112,22.845-48.94,38.019-81.715,40.104     c-32.775,2.086-63.294-9.312-86.139-29.424c-22.845-20.111-38.019-48.94-40.104-81.715c-2.085-32.775,9.313-63.294,29.424-86.139     C1468.09,281.076,1496.918,265.902,1529.693,263.816L1529.693,263.816z M1612.115,297.464     c-21.764-19.16-50.839-30.018-82.064-28.032c-62.45,3.974-109.855,57.821-105.881,120.271     c1.986,31.225,16.443,58.69,38.207,77.849c21.764,19.16,50.838,30.019,82.064,28.032c62.45-3.973,109.855-57.821,105.881-120.271     C1648.335,344.088,1633.879,316.624,1612.115,297.464z"/>
		</g>
		<g>
			<path style="fill-rule:evenodd;clip-rule:evenodd;fill:#EDBE2D;" d="M1798.286,353.008l107.594,126.845     c11.677,13.766,9.968,34.581-3.798,46.257l-126.845,107.594c-13.766,11.677-34.581,9.967-46.257-3.798l-107.594-126.845     c-11.677-13.766-9.967-34.581,3.798-46.258l126.845-107.594C1765.794,337.533,1786.609,339.243,1798.286,353.008z"/>
			<path style="fill-rule:evenodd;clip-rule:evenodd;fill:#383046;" d="M1759.761,584.391c0,0-5.052-20.361,18.889-19.058     c17.735,0.965,28.853-11.464,28.764-32.69c-0.09-21.224-29.831-22.492-48.403-22.613c-18.572-0.122-22.972-14.199-15.911-19.708     c7.869-6.138,35.198-4.119,37.232-19.727c2.033-15.608,2.233-18.032,2.233-18.032l17.346,1.424l-26.237-55.488l-33.793,48.815     l17.664,1.451c0,0,2.449,12.523-5.195,14.876c-7.644,2.354-38.225,4-38.881,32.573c-0.656,28.572,30.342,32.44,38.014,32.428     c22.645-0.037,30.606,4.09,30.047,11.603c-0.328,4.399-6.1,8.216-13.688,7.509c-22.912-2.137-30.617,6.159-31.064,35.282     L1759.761,584.391z"/>
			<path style="fill-rule:evenodd;clip-rule:evenodd;fill:#383046;" d="M1793.593,371.755l93.026,109.671     c10.094,11.902,8.617,29.897-3.284,39.993l-109.671,93.026c-11.901,10.095-29.897,8.617-39.992-3.284l-93.026-109.671     c-10.095-11.902-8.617-29.898,3.284-39.993l109.671-93.026C1765.502,358.375,1783.498,359.854,1793.593,371.755L1793.593,371.755     z M1792.341,377.382c-9.698-11.434-26.99-12.854-38.423-3.156L1648.553,463.6c-11.435,9.7-12.854,26.99-3.156,38.424     l89.374,105.365c9.699,11.434,26.99,12.854,38.424,3.156l105.365-89.375c11.434-9.698,12.854-26.989,3.155-38.424     L1792.341,377.382z"/>
		</g>
	</g>
		
</g>

</svg>